<svg width="280" height="280" viewBox="0 0 280 280" fill="none" xmlns="http://www.w3.org/2000/svg">
<path d="M139.501 127.96V127.966L139.513 127.971L139.501 127.96Z" fill="#F5F5F5"/>
<path d="M139.569 128.055L139.541 128.083H139.608L139.569 128.055Z" fill="#F5F5F5"/>
<path d="M139.658 128.078V128.083H139.675L139.658 128.078Z" fill="#F5F5F5"/>
<path d="M139.613 128.083H139.652L139.624 128.066L139.613 128.083Z" fill="#F5F5F5"/>
<path d="M139.485 128.061L139.479 128.027L139.3 127.971L139.462 128.078L139.485 128.061Z" fill="#F5F5F5"/>
<path d="M139.49 128.033V128.061L139.513 128.05L139.49 128.033Z" fill="#F5F5F5"/>
<path d="M139.647 128.044L139.642 128.055L139.653 128.061L139.647 128.044Z" fill="#F5F5F5"/>
<path d="M139.619 128.066H139.608L139.614 128.078L139.619 128.066Z" fill="#F5F5F5"/>
<path d="M139.512 128.044L139.524 128.038L139.507 128.033L139.512 128.044Z" fill="#F5F5F5"/>
<path d="M139.636 128.027L139.613 128.038L139.624 128.044L139.636 128.027Z" fill="#F5F5F5"/>
<path d="M132.16 75.6L139.563 127.501L146.904 75.6H147.022L156.833 5.66721C145.247 4.073 133.493 4.13145 121.923 5.84081L131.952 75.6H132.16Z" fill="#F5F5F5"/>
<path d="M161.543 79.8784L139.703 127.921L220.242 34.4008C211.347 26.6963 201.389 20.3121 190.674 15.4448L161.448 79.8448L161.543 79.8784Z" fill="#F5F5F5"/>
<path d="M88.855 113.204L139.171 127.938H138.975L139.462 128.078H139.496V128.05L139.535 128.078H139.468L139.507 128.106L139.709 128.195L139.541 128.089L190.153 142.906C190.147 142.944 190.137 142.982 190.125 143.018L257.236 162.742C260.701 151.46 262.521 139.738 262.64 127.938H192.433V128.027L139.697 128.083V128.038L139.927 127.966L139.737 128.089L140.207 127.954H139.977L257.824 93.0216C254.535 81.6696 249.62 70.8539 243.23 60.9112L139.921 127.938H139.742L139.815 127.848L139.681 127.938L139.731 127.652L139.636 127.865V127.938L139.574 127.982V127.938H139.535V127.865L139.44 127.68L139.473 127.915L139.367 127.848L139.423 127.91H139.249L36.3046 61.6504C30.0241 71.5685 25.2053 82.3397 21.9966 93.632L88.855 113.232V113.204ZM139.541 128.066V128.1L139.378 127.994L139.541 128.066Z" fill="#F5F5F5"/>
<path d="M104.916 88.0488L139.44 127.893L117.533 79.9008L88.2785 15.9264C77.6494 20.8833 67.7847 27.3365 58.9849 35.0896L104.905 88.0544L104.916 88.0488Z" fill="#F5F5F5"/>
<path d="M242.519 194.471L184.049 156.722C184.038 156.737 184.028 156.754 184.021 156.772L139.781 128.29L174.272 168.05L174.188 168.123L219.52 220.528C228.377 212.971 236.12 204.199 242.519 194.471Z" fill="#F5F5F5"/>
<path d="M139.641 128.201V128.195L139.636 128.19L139.641 128.201Z" fill="#F5F5F5"/>
<path d="M139.518 128.094L139.513 128.111L139.49 128.1L139.496 128.139L139.501 128.134L139.535 128.128L139.518 128.117L139.529 128.1H139.541L139.535 128.094L139.541 128.083H139.49L139.518 128.094Z" fill="#F5F5F5"/>
<path d="M139.266 128.206L139.473 128.145L139.485 128.094L139.468 128.083L139.266 128.206Z" fill="#F5F5F5"/>
<path d="M139.35 128.307L95.2277 156.934L95.1269 156.772L37.3013 194.191C43.6407 203.885 51.3155 212.636 60.0989 220.186L111.658 160.468L139.35 128.307Z" fill="#F5F5F5"/>
<path d="M88.8831 143.063L139.44 128.083L17.3599 128.24C17.4468 139.904 19.1986 151.495 22.5623 162.663L88.8719 143.097L88.8831 143.063Z" fill="#F5F5F5"/>
<path d="M89.2246 238.818C99.7825 243.621 110.972 246.893 122.455 248.534L139.44 128.486L89.2246 238.818Z" fill="#F5F5F5"/>
<path d="M139.653 128.134V128.111L139.642 128.117L139.653 128.134Z" fill="#F5F5F5"/>
<path d="M156.85 248.64C168.361 247.062 179.587 243.845 190.187 239.086L139.708 128.475L156.85 248.64Z" fill="#F5F5F5"/>
<path d="M139.518 128.285L139.574 128.682L139.63 128.296L139.568 128.173L139.518 128.285Z" fill="#F5F5F5"/>
<path d="M139.636 128.122L139.625 128.128L139.636 128.134V128.122Z" fill="#F5F5F5"/>
<path d="M262.64 268.436C262.64 268.52 207.726 268.582 140 268.582C72.2735 268.582 17.3599 268.52 17.3599 268.436C17.3599 268.352 72.2399 268.29 140 268.29C207.76 268.29 262.64 268.358 262.64 268.436Z" fill="#263238"/>
<path d="M172.099 65.8168C172.099 65.8168 189.874 103.897 176.495 139.367C163.117 174.838 113.977 225.68 108.528 228.39C108.528 228.39 121.134 208.583 98.1177 208.746C75.1017 208.908 63.5433 203.302 61.0681 195.233C58.5929 187.163 72.2681 161.101 59.6905 154.84C47.1129 148.579 31.8249 150.455 21.5601 141.77C21.5601 141.77 45.5001 139.776 63.1737 137.973C81.7265 136.08 137.48 97.2496 141.982 68.684" fill="#C94621"/>
<g opacity="0.4">
<path d="M172.099 65.8168C172.099 65.8168 189.874 103.897 176.495 139.367C163.117 174.838 113.977 225.68 108.528 228.39C108.528 228.39 121.134 208.583 98.1177 208.746C75.1017 208.908 63.5433 203.302 61.0681 195.233C58.5929 187.163 72.2681 161.101 59.6905 154.84C47.1129 148.579 31.8249 150.455 21.5601 141.77C21.5601 141.77 45.5001 139.776 63.1737 137.973C81.7265 136.08 137.48 97.2496 141.982 68.684" fill="black"/>
</g>
<path d="M107.425 131.387C107.327 131.474 107.222 131.552 107.111 131.622L106.176 132.255C105.37 132.815 104.177 133.566 102.687 134.495C99.7083 136.321 95.4915 138.701 90.6811 141.008C86.5726 142.977 82.3672 144.738 78.0811 146.283C76.4347 146.871 75.0963 147.325 74.1611 147.61L73.0859 147.941C72.9628 147.986 72.8351 148.018 72.7051 148.036C72.8195 147.974 72.9395 147.924 73.0635 147.885L74.1219 147.504C75.0459 147.185 76.3619 146.703 78.0083 146.087C81.2787 144.866 85.7475 143.046 90.5579 140.745C95.3683 138.443 99.5739 136.097 102.581 134.316C104.082 133.431 105.291 132.692 106.115 132.177L107.078 131.589C107.186 131.509 107.302 131.442 107.425 131.387Z" fill="#263238"/>
<path d="M122.55 152.499C122.43 152.608 122.303 152.709 122.169 152.802L121.049 153.619C120.069 154.319 118.67 155.35 116.956 156.643C113.518 159.219 108.853 162.893 103.913 167.205C98.9743 171.517 94.7071 175.65 91.6887 178.707C90.1823 180.236 88.9727 181.507 88.1439 182.358L87.1863 183.355C87.0759 183.475 86.958 183.587 86.8335 183.691C86.9283 183.56 87.0312 183.435 87.1415 183.316L88.0599 182.28C88.8663 181.384 90.0535 180.113 91.5431 178.567C94.5223 175.465 98.7783 171.287 103.718 166.986C108.657 162.686 113.361 159.012 116.833 156.475C118.563 155.204 119.985 154.202 120.982 153.524L122.102 152.751C122.241 152.65 122.392 152.566 122.55 152.499Z" fill="#263238"/>
<path d="M120.506 158.738C120.459 158.815 120.403 158.887 120.338 158.95L119.817 159.51C119.358 159.998 118.697 160.686 117.835 161.521C116.155 163.201 113.747 165.441 110.986 167.821C108.225 170.201 105.633 172.211 103.706 173.634C102.749 174.339 101.965 174.905 101.416 175.28L100.783 175.711C100.711 175.766 100.632 175.811 100.548 175.846C100.548 175.846 100.615 175.773 100.749 175.661L101.349 175.19L103.589 173.466C105.465 172.01 108.035 169.96 110.785 167.597C113.534 165.234 115.959 163.01 117.684 161.375L119.722 159.432L120.282 158.906C120.428 158.788 120.495 158.732 120.506 158.738Z" fill="#263238"/>
<path d="M117.51 248.64L114.643 261.61L109.418 271.208C109.328 271.372 109.273 271.552 109.256 271.738C109.239 271.924 109.261 272.111 109.32 272.289C109.379 272.466 109.473 272.629 109.598 272.768C109.723 272.907 109.875 273.018 110.045 273.095C110.242 273.186 110.458 273.228 110.674 273.218C110.89 273.209 111.101 273.147 111.289 273.039C113.719 271.634 122.64 266.42 122.797 265.462C122.976 264.342 126.717 251.983 126.717 251.983L117.51 248.64Z" fill="#263238"/>
<path d="M123.2 264.186C123.052 264.334 122.887 264.464 122.707 264.572L121.302 265.524L116.648 268.643L112 271.768C111.44 272.132 110.97 272.446 110.583 272.703C110.41 272.829 110.222 272.932 110.023 273.011C110.167 272.86 110.327 272.725 110.499 272.608C110.819 272.362 111.283 272.02 111.866 271.594C113.025 270.754 114.666 269.618 116.469 268.397C118.272 267.176 119.952 266.106 121.173 265.356C121.783 264.975 122.293 264.673 122.629 264.477C122.807 264.358 122.999 264.26 123.2 264.186Z" fill="#455A64"/>
<path d="M175.011 251.742L174.233 262.08C174.233 262.08 184.503 266.347 184.548 268.274H164.388L164.948 251.3L175.011 251.742Z" fill="#263238"/>
<path d="M183.915 267.607C183.659 267.636 183.399 267.636 183.143 267.607L181.037 267.54C179.262 267.484 176.809 267.406 174.093 267.372C171.377 267.338 168.93 267.338 167.149 267.372H165.043C164.785 267.389 164.526 267.378 164.271 267.338C164.525 267.287 164.784 267.261 165.043 267.26C165.536 267.226 166.259 267.193 167.149 267.159C168.924 267.098 171.383 267.058 174.099 267.098C176.815 267.137 179.273 267.238 181.048 267.35C181.933 267.406 182.65 267.462 183.148 267.506C183.406 267.52 183.663 267.554 183.915 267.607Z" fill="#455A64"/>
<path d="M129.87 147.454L112.067 257.387L128.419 258.373L153.653 147.454H129.87Z" fill="#C94621"/>
<path d="M153.95 142.66L162.165 258.373H177.548V135.856L153.95 142.66Z" fill="#C94621"/>
<path d="M171.982 251.138C171.898 251.138 170.66 228.228 169.21 199.959C167.759 171.69 166.645 148.764 166.729 148.758C166.813 148.753 168.051 171.668 169.501 199.942C170.951 228.217 172.06 251.138 171.982 251.138Z" fill="#263238"/>
<path d="M177.548 251.138L177.43 251.177C177.329 251.177 177.173 251.233 176.977 251.261C176.579 251.328 175.997 251.406 175.297 251.496C173.869 251.67 171.886 251.877 169.697 252.056C165.323 252.454 161.75 252.616 161.756 252.414C161.756 252.414 161.812 252.414 161.913 252.414H162.377L164.057 252.28L169.657 251.793L175.257 251.3C176.68 251.194 177.609 251.126 177.548 251.138Z" fill="#263238"/>
<path d="M139.563 150.041C139.563 150.041 139.563 150.13 139.535 150.304C139.507 150.478 139.474 150.735 139.429 151.06C139.328 151.738 139.177 152.712 138.987 153.961C138.6 156.481 138.018 160.121 137.273 164.601C135.789 173.594 133.627 186.004 131.007 199.668C128.386 213.332 125.787 225.658 123.839 234.567C122.864 239.019 122.052 242.62 121.481 245.101C121.195 246.333 120.971 247.296 120.815 247.962L120.635 248.702C120.591 248.87 120.562 248.954 120.562 248.954C120.562 248.954 120.563 248.864 120.607 248.696C120.652 248.528 120.691 248.265 120.759 247.946C120.899 247.279 121.106 246.316 121.369 245.078C121.929 242.57 122.679 238.969 123.637 234.522C125.535 225.607 128.117 213.276 130.721 199.612C133.325 185.948 135.52 173.6 137.071 164.584C137.833 160.104 138.449 156.47 138.875 153.944C139.087 152.695 139.255 151.704 139.373 151.049C139.429 150.73 139.474 150.489 139.507 150.298C139.541 150.108 139.563 150.041 139.563 150.041Z" fill="#263238"/>
<path d="M130.066 251.138C129.846 251.173 129.622 251.182 129.4 251.166L127.591 251.121L121.621 250.88L115.657 250.6L113.848 250.516C113.627 250.515 113.407 250.502 113.188 250.477C114.007 250.363 114.837 250.335 115.663 250.393C117.191 250.393 119.303 250.488 121.632 250.589C123.962 250.69 126.073 250.813 127.596 250.914C128.364 250.964 128.98 251.009 129.405 251.048C129.628 251.055 129.849 251.085 130.066 251.138Z" fill="#263238"/>
<g opacity="0.3">
<path d="M129.007 152.802L129.36 150.618L153.227 149.268L152.326 153.25L129.007 152.802Z" fill="black"/>
</g>
<g opacity="0.3">
<path d="M154.627 153.25L153.95 149.251L177.548 148.086L177.543 153.742L154.627 153.25Z" fill="black"/>
</g>
<path d="M131.404 66.1808L148.064 62.4736L162.064 63.0504L174.272 66.9312L167.328 101.752L140.751 104.11L131.404 66.1808Z" fill="#263238"/>
<path d="M145.533 63.0504L128.005 66.9312L136.769 113.876C136.769 113.876 128.929 132.916 128.005 150.618L153.95 149.251C153.95 149.251 155.736 125.922 155.126 116.939C154.515 107.957 154.106 92.2432 154.106 92.2432L145.533 63.0504Z" fill="#C94621"/>
<path d="M95.4126 89.9864C95.4126 89.9864 101.36 83.9552 107.565 80.7128C112.14 78.3216 121.1 75.32 124.661 71.4672C125.964 70.0991 127.092 68.5756 128.021 66.9312L132.16 89.04L114.57 91.84C114.57 91.84 117.185 93.268 115.556 94.2872L126.577 107.167L119.022 121.414C119.022 121.414 94.3934 100.195 95.4126 89.9864Z" fill="#C94621"/>
<path d="M162.064 63.0504C164.194 63.3163 166.299 63.7545 168.358 64.3608C172.088 65.5928 178.393 66.9312 178.393 66.9312L169.433 114.492C169.433 114.492 181.613 129.545 178.393 147.963C178.393 147.963 161.565 149.29 153.949 149.251L153.849 91.3808C153.849 91.3808 160.227 83.2608 161.045 75.2976C161.862 67.3344 162.064 63.0504 162.064 63.0504Z" fill="#C94621"/>
<path d="M178.394 66.9312C178.394 66.9312 188.435 77.3304 193.962 81.256C199.489 85.1816 206.444 91.056 206.444 94.1808C206.333 96.1361 205.935 98.0644 205.263 99.904C204.876 101.059 204.309 102.146 203.583 103.124C201.046 106.484 194.326 115.254 189.885 119.414L178.685 107.615L189.325 95.8552C189.325 95.8552 175.045 89.964 174.339 88.3624C173.634 86.7608 178.394 66.9312 178.394 66.9312Z" fill="#C94621"/>
<path d="M153.742 97.6528C153.649 97.5847 153.563 97.5078 153.485 97.4232L152.785 96.7232L150.214 94.08L141.501 84.98L141.45 84.924V84.8456L142.604 80.0072C142.777 79.2848 142.945 78.5736 143.113 77.868L143.253 78.0472H137.53L137.586 77.868C138.941 73.7632 140.101 70.2464 140.946 67.7264C141.361 66.5 141.691 65.52 141.932 64.8144C142.044 64.4952 142.133 64.2544 142.206 64.0472C142.232 63.9559 142.268 63.8677 142.313 63.784C142.298 63.8772 142.276 63.969 142.245 64.0584C142.189 64.26 142.111 64.5176 142.016 64.8424L141.12 67.76C140.308 70.2912 139.182 73.8192 137.872 77.9352L137.743 77.756H143.293H143.477L143.438 77.9352C143.27 78.6408 143.097 79.352 142.929 80.0744C142.525 81.7544 142.139 83.3672 141.769 84.9128L141.73 84.784L150.371 93.9568L152.88 96.6616L153.546 97.4008C153.619 97.4786 153.685 97.563 153.742 97.6528Z" fill="#263238"/>
<path d="M153.95 149.251C153.871 149.251 153.765 136.198 153.714 120.098C153.664 103.998 153.686 90.9384 153.765 90.9328C153.843 90.9272 153.95 103.986 154.006 120.098C154.062 136.209 154.034 149.251 153.95 149.251Z" fill="#263238"/>
<path d="M164.752 63.476C164.79 63.5774 164.816 63.6826 164.831 63.7896C164.87 64.0248 164.926 64.3496 164.999 64.708C165.139 65.5424 165.335 66.7016 165.559 68.1408L167.451 79.8616L167.479 80.052H167.289L164.198 79.6376L164.349 79.4304L164.982 80.7184C165.407 81.5864 165.827 82.4432 166.231 83.2552L166.27 83.3392L166.214 83.4064L158.071 93.576L155.63 96.5832L154.958 97.3896C154.887 97.4876 154.805 97.5761 154.711 97.6528C154.773 97.5489 154.842 97.4497 154.919 97.356L155.546 96.5216L157.92 93.4584L166.001 83.1992V83.356C165.603 82.544 165.183 81.676 164.752 80.8192L164.08 79.52L163.957 79.2736L164.231 79.3072L167.323 79.7328L167.166 79.8952C166.449 75.208 165.822 71.1144 165.374 68.1352C165.167 66.6904 164.999 65.5256 164.875 64.6912C164.827 64.3178 164.788 64.0099 164.758 63.7672C164.748 63.6704 164.746 63.573 164.752 63.476Z" fill="#263238"/>
<path d="M151.514 130.334C150.92 129.612 149.761 129.214 149.201 129.942C148.918 130.175 148.712 130.488 148.612 130.84C148.512 131.193 148.522 131.567 148.641 131.914C148.736 132.125 148.873 132.315 149.044 132.473C149.214 132.63 149.414 132.752 149.632 132.832C149.85 132.911 150.082 132.946 150.314 132.934C150.545 132.923 150.772 132.865 150.982 132.765C151.185 132.648 151.361 132.49 151.5 132.301C151.638 132.112 151.736 131.896 151.786 131.667C151.836 131.439 151.837 131.202 151.791 130.972C151.744 130.743 151.649 130.525 151.514 130.334Z" fill="#263238"/>
<path d="M151.827 115.22C151.233 114.492 150.074 114.072 149.514 114.828C149.233 115.061 149.028 115.375 148.928 115.727C148.828 116.079 148.837 116.453 148.954 116.799C149.049 117.011 149.186 117.202 149.356 117.36C149.526 117.518 149.726 117.64 149.945 117.72C150.163 117.799 150.395 117.834 150.627 117.822C150.859 117.81 151.086 117.752 151.295 117.65C151.498 117.534 151.675 117.376 151.813 117.187C151.952 116.998 152.049 116.782 152.099 116.553C152.149 116.324 152.151 116.087 152.104 115.858C152.057 115.628 151.963 115.411 151.827 115.22Z" fill="#263238"/>
<path d="M191.823 113.971C191.229 113.249 190.07 112.851 189.51 113.579C189.227 113.812 189.023 114.125 188.923 114.478C188.823 114.83 188.832 115.204 188.95 115.55C189.045 115.762 189.182 115.953 189.352 116.111C189.522 116.269 189.722 116.391 189.94 116.471C190.159 116.55 190.391 116.585 190.623 116.573C190.854 116.561 191.082 116.503 191.291 116.402C191.494 116.285 191.67 116.127 191.809 115.938C191.947 115.749 192.045 115.533 192.095 115.304C192.145 115.075 192.147 114.838 192.1 114.609C192.053 114.379 191.958 114.162 191.823 113.971Z" fill="#263238"/>
<path d="M118.893 115.36C118.3 114.632 117.141 114.212 116.581 114.968C116.298 115.201 116.093 115.514 115.993 115.866C115.893 116.218 115.903 116.593 116.021 116.939C116.116 117.151 116.252 117.342 116.423 117.5C116.593 117.658 116.793 117.78 117.011 117.86C117.229 117.939 117.461 117.974 117.693 117.962C117.925 117.95 118.152 117.892 118.361 117.79C118.565 117.674 118.741 117.516 118.88 117.327C119.018 117.138 119.115 116.922 119.166 116.693C119.216 116.464 119.217 116.227 119.17 115.998C119.124 115.768 119.029 115.551 118.893 115.36Z" fill="#263238"/>
<path d="M115.696 94.4944C114.296 93.844 112.8 93.4206 111.267 93.24C109.726 93.1568 108.183 93.3155 106.691 93.7104C107.089 93.4768 107.522 93.3103 107.974 93.2176C110.155 92.6595 112.46 92.8569 114.515 93.7776C114.946 93.9485 115.345 94.1908 115.696 94.4944Z" fill="#263238"/>
<path d="M106.691 91.84C107.033 91.6138 107.412 91.4507 107.811 91.3584C108.769 91.0715 109.763 90.9299 110.763 90.9384C111.764 90.9473 112.758 91.1039 113.714 91.4032C114.111 91.5096 114.489 91.6778 114.834 91.9016C113.504 91.5185 112.134 91.293 110.751 91.2296C109.378 91.2674 108.015 91.4724 106.691 91.84Z" fill="#263238"/>
<path d="M132.664 91.896C132.562 91.5903 132.482 91.2778 132.423 90.9608L131.863 88.396C131.337 86.1952 130.631 83.2328 129.853 79.9568C129.075 76.6808 128.447 73.6512 128.1 71.4504C127.921 70.3304 127.798 69.4624 127.736 68.8464C127.684 68.528 127.66 68.2058 127.663 67.8832C127.748 68.1938 127.809 68.5101 127.848 68.8296C127.943 69.44 128.1 70.3248 128.302 71.4168C128.699 73.6008 129.355 76.5968 130.139 79.8896C130.923 83.1824 131.623 86.1784 132.065 88.3568C132.289 89.4432 132.457 90.328 132.552 90.9384C132.615 91.2541 132.653 91.5743 132.664 91.896Z" fill="#263238"/>
<path d="M177.772 68.0064C177.76 68.3379 177.718 68.6677 177.649 68.992C177.542 69.6696 177.397 70.5656 177.217 71.6576C176.842 73.948 176.338 77.0392 175.784 80.4496C175.229 83.86 174.664 86.9848 174.261 89.2248C174.048 90.3448 173.869 91.252 173.734 91.8792C173.684 92.2064 173.605 92.5287 173.499 92.8424C173.51 92.5064 173.544 92.1715 173.6 91.84C173.712 91.1624 173.857 90.2664 174.031 89.1744C174.406 86.8784 174.916 83.7928 175.47 80.3824C176.025 76.972 176.59 73.8472 176.993 71.6016C177.206 70.4816 177.385 69.58 177.514 68.9528C177.579 68.6319 177.665 68.3157 177.772 68.0064Z" fill="#263238"/>
<path d="M196.874 90.0816C196.874 90.132 196.252 90.0816 195.266 90.132C193.986 90.1433 192.746 90.5829 191.744 91.3808C190.83 92.278 190.152 93.3883 189.773 94.612C189.616 95.1267 189.429 95.6316 189.213 96.124C189.275 95.5851 189.399 95.0552 189.582 94.5448C189.92 93.2564 190.604 92.0849 191.559 91.1568C192.119 90.6737 192.785 90.3285 193.502 90.1488C194.079 90.0005 194.671 89.9253 195.266 89.9248C195.663 89.9209 196.06 89.9433 196.454 89.992C196.598 89.9945 196.741 90.0249 196.874 90.0816Z" fill="#263238"/>
<path d="M199.545 92.6968C199.545 92.7472 198.929 92.6968 197.943 92.764C195.369 92.9135 192.88 93.7424 190.731 95.1664C189.902 95.7264 189.437 96.1072 189.403 96.068C189.37 96.0288 189.493 95.9392 189.695 95.7488C189.984 95.4773 190.291 95.2248 190.613 94.9928C192.747 93.4485 195.304 92.598 197.938 92.5568C198.333 92.5503 198.727 92.569 199.119 92.6128C199.265 92.6141 199.41 92.6425 199.545 92.6968Z" fill="#263238"/>
<path d="M140.963 115.22C140.314 115.058 139.68 114.836 139.071 114.559C138.429 114.371 137.807 114.123 137.211 113.82C137.889 113.845 138.555 114.003 139.171 114.285C139.823 114.479 140.431 114.797 140.963 115.22Z" fill="#263238"/>
<path d="M141.68 109.592C141.725 109.659 140.414 110.555 138.942 111.832C137.469 113.109 136.382 114.262 136.321 114.201C137.001 113.223 137.819 112.35 138.751 111.608C139.623 110.795 140.61 110.116 141.68 109.592Z" fill="#263238"/>
<path d="M178.394 147.963C178.394 148.047 167.121 148.702 153.194 149.436C139.266 150.17 127.994 150.702 127.994 150.618C127.994 150.534 139.266 149.878 153.194 149.145C167.121 148.411 178.388 147.885 178.394 147.963Z" fill="#263238"/>
<g opacity="0.3">
<path d="M188.787 95.5528C188.435 94.4709 188.436 93.3048 188.79 92.2235C189.144 91.1422 189.834 90.2018 190.758 89.5384C191.138 89.2288 191.625 89.0818 192.113 89.1296C192.232 89.1468 192.345 89.189 192.446 89.2532C192.547 89.3175 192.633 89.4025 192.699 89.5025C192.764 89.6026 192.808 89.7154 192.827 89.8336C192.846 89.9517 192.839 90.0725 192.808 90.188C192.644 90.4501 192.406 90.6584 192.125 90.7872C191.274 91.3688 190.63 92.2064 190.288 93.1784C189.948 94.1434 189.713 95.1423 189.588 96.1576" fill="black"/>
</g>
<g opacity="0.3">
<path d="M137.721 77.8904C137.822 78.1928 139.826 78.4224 140.207 79.2512C140.502 80.1192 140.502 81.06 140.207 81.928C139.917 82.7937 139.779 83.7031 139.798 84.616C139.966 86.24 141.299 87.4664 142.542 88.536C146.014 91.4984 150.242 94.696 153.742 97.664C150.64 93.968 146.597 90.16 143.181 86.8C142.64 86.3403 142.208 85.7666 141.915 85.12C141.713 84.2421 141.767 83.3246 142.072 82.4768C142.363 81.3307 142.658 80.1827 142.957 79.0328C143.03 78.736 143.203 78.2376 143.242 78.0752C142.828 78.0028 142.408 77.9672 141.988 77.9688C140.568 77.8607 139.142 77.8495 137.721 77.9352" fill="black"/>
</g>
<path d="M118.435 116.71C118.475 116.55 118.535 116.395 118.614 116.25C118.748 115.965 118.955 115.556 119.224 115.058C119.939 113.765 120.744 112.525 121.632 111.345C122.516 110.158 123.484 109.035 124.527 107.985C124.931 107.587 125.267 107.274 125.507 107.066C125.748 106.859 125.883 106.753 125.899 106.77C125.518 107.245 125.11 107.7 124.679 108.13C123.917 108.959 122.898 110.13 121.879 111.49C120.859 112.851 120.003 114.173 119.42 115.13C119.124 115.676 118.794 116.203 118.435 116.71Z" fill="#263238"/>
<path d="M122.584 102.838C122.618 102.878 121.974 103.499 121.011 104.574C118.494 107.378 116.456 110.578 114.979 114.044C114.419 115.371 114.117 116.217 114.072 116.206C114.102 115.996 114.152 115.789 114.223 115.59C114.335 115.198 114.526 114.643 114.783 113.966C116.169 110.428 118.231 107.194 120.854 104.446C121.358 103.919 121.778 103.516 122.086 103.247C122.238 103.095 122.405 102.958 122.584 102.838Z" fill="#263238"/>
<path d="M194.763 114.162C194.596 114.026 194.445 113.872 194.315 113.702L193.155 112.414C192.17 111.334 190.775 109.861 189.196 108.282C187.617 106.702 186.139 105.314 185.052 104.334L183.759 103.174C183.589 103.043 183.434 102.893 183.299 102.726C183.491 102.822 183.67 102.943 183.831 103.085C184.162 103.331 184.627 103.701 185.187 104.177C186.307 105.123 187.813 106.495 189.398 108.097C190.983 109.698 192.36 111.177 193.318 112.302C193.794 112.862 194.163 113.327 194.438 113.652C194.565 113.809 194.674 113.98 194.763 114.162Z" fill="#263238"/>
<path d="M124.981 110.141L128.649 112.118L136.786 114.425C136.786 114.425 135.106 125.558 134.047 126.51C132.989 127.462 121.1 117.46 121.1 117.46L124.981 110.141Z" fill="#FFBE9D"/>
<path d="M180.449 109.474L177.8 111.535L170.167 115.17C170.167 115.17 173.695 125.86 174.883 126.622C176.07 127.383 186.139 115.545 186.139 115.545L180.449 109.474Z" fill="#FFBE9D"/>
<path d="M142.873 29.12C142.766 31.9872 138.953 33.7232 138.998 36.5904C138.998 37.8168 139.782 38.9256 139.933 40.1464C140.134 41.7872 139.216 43.3328 138.874 44.9512C138.18 48.3112 140.118 51.8056 142.996 53.6312C145.874 55.4568 149.481 55.804 152.858 55.3448" fill="#263238"/>
<path d="M165.934 28.4368C165.822 29.9768 166.835 31.3488 167.86 32.5024C168.885 33.656 170.022 34.86 170.24 36.4C170.632 39.1048 168 41.6136 168.532 44.296C168.823 45.7296 169.999 46.8832 170.212 48.3336C170.425 49.784 169.652 51.1336 168.734 52.1752C167.815 53.2168 166.723 53.0824 165.9 54.236C164.942 55.5307 163.726 56.612 162.327 57.4112C159.359 59.0408 155.798 56.6888 154.364 56.2912" fill="#263238"/>
<path d="M142.296 30.8C142.257 29.4056 143.545 28.3248 144.844 27.8152C146.143 27.3056 147.588 27.1152 148.764 26.3312C149.789 25.6424 150.478 24.5672 151.346 23.688C152.416 22.6043 153.754 21.8242 155.225 21.4276C156.695 21.031 158.244 21.0322 159.714 21.431C161.184 21.8297 162.521 22.6118 163.589 23.6971C164.658 24.7825 165.418 26.1321 165.794 27.608C166.292 29.5904 165.951 31.9424 164.383 33.2584C162.568 34.7928 159.875 34.4512 157.545 33.9752C155.215 33.4992 152.561 33.04 150.64 34.4064C149.47 35.2352 148.798 36.5736 148.081 37.8168C147.364 39.06 146.463 40.3256 145.107 40.7904C143.752 41.2552 141.915 40.4544 141.859 39.0208" fill="#263238"/>
<path d="M147.795 31.0744C147.214 31.1374 146.677 31.4163 146.291 31.8559C145.905 32.2956 145.699 32.864 145.712 33.4488L147.106 64.96C147.162 68.6784 152.606 70.7728 156.593 70.6776C160.614 70.588 160.748 68.6112 160.793 65.0776C160.877 59.1584 160.871 56.9408 160.877 56.9744C160.882 57.008 165.956 56.1176 166.998 49.4816C167.513 46.1776 167.334 40.768 167.048 36.344C166.79 32.368 164.142 27.4904 160.177 27.916L147.795 31.0744Z" fill="#FFBE9D"/>
<path d="M164.942 40.1408C164.946 40.3622 164.862 40.576 164.709 40.7362C164.556 40.8964 164.346 40.9903 164.125 40.9976C164.017 41.0067 163.908 40.9942 163.805 40.9606C163.702 40.9271 163.607 40.8732 163.525 40.8022C163.443 40.7313 163.376 40.6446 163.328 40.5473C163.28 40.4501 163.252 40.3442 163.246 40.236C163.243 40.0112 163.329 39.7943 163.485 39.6327C163.641 39.4712 163.855 39.378 164.08 39.3736C164.187 39.3668 164.295 39.3813 164.396 39.4162C164.498 39.4512 164.591 39.5059 164.671 39.5773C164.752 39.6486 164.817 39.7352 164.863 39.8319C164.91 39.9286 164.937 40.0336 164.942 40.1408Z" fill="#263238"/>
<path d="M165.883 39.1664C165.777 39.2728 165.127 38.7968 164.203 38.8024C163.279 38.808 162.619 39.2672 162.523 39.1552C162.428 39.0432 162.579 38.9032 162.876 38.6904C163.27 38.4144 163.74 38.2677 164.22 38.2704C164.696 38.2698 165.161 38.4187 165.547 38.696C165.839 38.9144 165.934 39.116 165.883 39.1664Z" fill="#263238"/>
<path d="M156.055 40.1408C156.058 40.3622 155.974 40.576 155.822 40.7362C155.669 40.8964 155.459 40.9903 155.238 40.9976C155.13 41.0068 155.021 40.9942 154.918 40.9606C154.815 40.9271 154.719 40.8732 154.637 40.8023C154.555 40.7313 154.489 40.6446 154.441 40.5473C154.393 40.4501 154.365 40.3442 154.358 40.236C154.355 40.014 154.439 39.7996 154.592 39.6385C154.745 39.4774 154.954 39.3823 155.176 39.3736C155.285 39.3644 155.394 39.3772 155.497 39.4111C155.601 39.445 155.696 39.4993 155.778 39.5709C155.86 39.6425 155.927 39.7298 155.975 39.8277C156.022 39.9256 156.05 40.0321 156.055 40.1408Z" fill="#263238"/>
<path d="M156.878 39.3568C156.772 39.4632 156.128 38.9928 155.198 38.9928C154.269 38.9928 153.608 39.4576 153.518 39.3456C153.429 39.2336 153.574 39.0992 153.866 38.8808C154.261 38.6054 154.733 38.4605 155.215 38.4664C155.691 38.4619 156.156 38.609 156.542 38.8864C156.834 39.1048 156.929 39.3064 156.878 39.3568Z" fill="#263238"/>
<path d="M160.216 46.1384C160.7 45.9878 161.2 45.8956 161.706 45.864C161.941 45.864 162.159 45.7968 162.198 45.6344C162.217 45.3924 162.163 45.1504 162.041 44.94C161.817 44.38 161.588 43.7864 161.347 43.1648C160.378 40.628 159.667 38.5504 159.785 38.5112C159.902 38.472 160.754 40.4936 161.717 43.0248C161.946 43.652 162.17 44.2456 162.383 44.8168C162.531 45.0989 162.574 45.4241 162.506 45.7352C162.474 45.8189 162.422 45.8937 162.355 45.9531C162.288 46.0126 162.207 46.055 162.12 46.0768C161.992 46.1123 161.86 46.1311 161.728 46.1328C161.226 46.1962 160.718 46.1981 160.216 46.1384Z" fill="#263238"/>
<path d="M160.877 56.9744C157.752 57.0283 154.673 56.2141 151.984 54.6224C152.057 54.6224 154.431 59.2368 160.787 58.5424L160.877 56.9744Z" fill="#EB996E"/>
<path d="M159.835 48.3448C159.659 48.1282 159.432 47.9589 159.173 47.8524C158.915 47.7458 158.635 47.7052 158.357 47.7344C158.155 47.7542 157.959 47.8139 157.78 47.91C157.601 48.0061 157.443 48.1368 157.315 48.2944C157.186 48.4495 157.11 48.6419 157.098 48.8434C157.086 49.0449 157.138 49.245 157.248 49.4144C157.396 49.5768 157.589 49.6921 157.802 49.7459C158.015 49.7996 158.239 49.7895 158.447 49.7168C158.875 49.5525 159.267 49.3051 159.6 48.9888C159.703 48.9144 159.79 48.8213 159.858 48.7144C159.892 48.665 159.91 48.6064 159.91 48.5464C159.91 48.4864 159.892 48.4278 159.858 48.3784" fill="#C94621"/>
<path d="M157.522 46.7768C157.673 46.7768 157.679 47.7624 158.53 48.4568C159.381 49.1512 160.44 49.0168 160.445 49.1848C160.451 49.3528 160.21 49.3808 159.768 49.392C159.184 49.4013 158.617 49.2028 158.166 48.832C157.732 48.4793 157.453 47.9709 157.388 47.4152C157.36 47.04 157.455 46.7712 157.522 46.7768Z" fill="#263238"/>
<path d="M157.287 37.7496C157.198 38.0016 156.285 37.884 155.21 38.0128C154.134 38.1416 153.266 38.444 153.126 38.22C153.059 38.1136 153.21 37.8784 153.563 37.66C154.029 37.3608 154.556 37.1728 155.106 37.1107C155.656 37.0485 156.212 37.1139 156.733 37.3016C157.13 37.436 157.326 37.632 157.287 37.7496Z" fill="#263238"/>
<path d="M165.536 36.512C165.38 36.7248 164.747 36.512 163.991 36.512C163.235 36.512 162.585 36.652 162.44 36.4392C162.372 36.3328 162.473 36.12 162.753 35.924C163.13 35.6867 163.568 35.5668 164.013 35.5798C164.458 35.5928 164.889 35.7379 165.251 35.9968C165.519 36.1984 165.609 36.4 165.536 36.512Z" fill="#263238"/>
<path d="M144.989 53.2728C146.815 53.6424 146.977 52.7128 148.349 51.4472C149.025 50.8071 149.543 50.0185 149.862 49.1438C150.181 48.269 150.292 47.3322 150.186 46.4072C149.979 44.7776 149.1 43.12 149.665 41.5744C150.41 39.536 153.272 38.9088 154.028 36.876C154.47 35.6888 154.073 34.3056 154.588 33.1464C155.103 31.9872 156.206 31.4328 157.321 31.0296C158.435 30.6264 159.633 30.3464 160.574 29.6184C161.515 28.8904 162.092 27.5128 161.487 26.4936C156.531 27.0874 151.664 28.2699 146.989 30.016C145.908 30.4192 144.749 30.9064 144.133 31.8696C143.517 32.8328 143.483 34.2048 143.545 35.4256C143.821 41.3989 144.097 47.3573 144.373 53.3008" fill="#263238"/>
<path d="M140.812 39.76C140.708 38.656 140.246 37.6163 139.496 36.7989C138.747 35.9815 137.751 35.4311 136.661 35.2314C135.57 35.0318 134.444 35.1938 133.453 35.6928C132.463 36.1918 131.663 37.0005 131.174 37.996C130.256 39.872 130.575 42.1512 131.438 44.0552C132.457 46.2952 134.551 48.3784 137.037 48.2664C139.373 48.16 141.249 46.116 141.921 43.876C142.593 41.636 142.324 39.2448 142.044 36.9264" fill="#263238"/>
<path d="M139.513 48.8264C139.372 48.7222 139.254 48.5908 139.166 48.44C138.905 48.0395 138.737 47.5862 138.673 47.1128C138.575 46.4143 138.596 45.7043 138.734 45.0128C138.869 44.2344 139.132 43.4168 139.294 42.5488C139.507 41.7473 139.556 40.9114 139.44 40.0904C139.306 39.3512 138.953 38.724 138.802 38.1416C138.653 37.6829 138.639 37.191 138.762 36.7248C138.869 36.3944 139.009 36.26 139.02 36.2712C139.031 36.2824 138.936 36.4392 138.874 36.7528C138.801 37.1984 138.844 37.6554 138.998 38.08C139.271 38.7188 139.507 39.3733 139.703 40.04C139.842 40.896 139.8 41.7716 139.58 42.6104C139.384 43.4952 139.115 44.2904 138.97 45.0632C138.825 45.7267 138.784 46.4086 138.846 47.0848C138.941 47.7065 139.168 48.3005 139.513 48.8264Z" fill="#455A64"/>
<path d="M139.44 40.88C139.178 41.2832 138.83 41.6235 138.421 41.8768C137.465 42.5505 136.328 42.9213 135.159 42.9413C133.99 42.9612 132.842 42.6294 131.863 41.9888C131.448 41.75 131.091 41.4231 130.816 41.0312C130.85 40.992 131.23 41.384 131.975 41.8152C132.939 42.3808 134.04 42.6697 135.158 42.6499C136.275 42.6301 137.365 42.3026 138.309 41.7032C139.014 41.2272 139.384 40.8184 139.44 40.88Z" fill="#455A64"/>
<path d="M139.087 41.8936C138.971 42.2745 138.781 42.6286 138.527 42.9352C137.959 43.7139 137.24 44.3712 136.414 44.8684C135.588 45.3656 134.671 45.6927 133.717 45.8304C133.327 45.9099 132.925 45.9099 132.535 45.8304C132.914 45.7385 133.297 45.6675 133.683 45.6176C134.594 45.4277 135.466 45.0871 136.265 44.6096C137.059 44.1282 137.769 43.5189 138.365 42.8064C138.818 42.2632 139.048 41.8712 139.087 41.8936Z" fill="#455A64"/>
<path d="M140.762 51.044C140.762 51.044 140.734 51.044 140.689 50.9656C140.621 50.8809 140.559 50.791 140.504 50.6968C140.29 50.3396 140.143 49.947 140.067 49.5376C139.942 48.8854 139.979 48.2124 140.174 47.5776C140.425 46.7231 140.973 45.9864 141.719 45.5C142.503 44.94 143.528 44.5592 144.183 43.6744C144.347 43.4536 144.464 43.2014 144.525 42.9335C144.587 42.6655 144.593 42.3878 144.542 42.1176C144.415 41.5267 144.227 40.9506 143.982 40.3984C143.721 39.7675 143.595 39.0896 143.609 38.4072C143.623 37.7248 143.779 37.0529 144.066 36.4336C144.367 35.7685 144.831 35.1905 145.415 34.7536C146.024 34.329 146.718 34.0406 147.448 33.908C148.165 33.7456 148.882 33.6504 149.548 33.4488C150.199 33.2734 150.797 32.9407 151.29 32.48C151.734 32.0022 152.004 31.3887 152.057 30.7384C152.117 30.0901 152.22 29.4466 152.365 28.812C152.659 27.6188 153.28 26.5311 154.157 25.6704C154.927 24.9309 155.903 24.4426 156.957 24.2704C157.722 24.1405 158.507 24.2293 159.224 24.5266C159.94 24.8238 160.558 25.3174 161.006 25.9504C161.244 26.2895 161.418 26.669 161.521 27.0704C161.562 27.2086 161.585 27.3518 161.588 27.496C161.462 26.9618 161.231 26.4576 160.911 26.012C160.527 25.4993 160.026 25.0863 159.449 24.808C158.682 24.4429 157.821 24.3274 156.985 24.4776C155.973 24.6515 155.038 25.1279 154.303 25.844C153.477 26.684 152.896 27.7335 152.623 28.8792C152.48 29.5122 152.379 30.1538 152.32 30.8C152.26 31.5093 151.967 32.1788 151.486 32.704C150.953 33.1988 150.307 33.5547 149.604 33.74C148.91 33.9528 148.187 34.048 147.487 34.2104C146.795 34.3359 146.137 34.6049 145.555 35C145.011 35.4071 144.578 35.9443 144.295 36.5624C144.024 37.1473 143.876 37.7817 143.861 38.4263C143.846 39.0708 143.963 39.7116 144.206 40.3088C144.456 40.8787 144.644 41.4738 144.766 42.084C144.82 42.3872 144.812 42.6983 144.74 42.998C144.669 43.2977 144.537 43.5794 144.351 43.8256C143.623 44.7776 142.571 45.1472 141.809 45.6792C141.091 46.1314 140.557 46.8241 140.303 47.6336C140.101 48.2413 140.049 48.8887 140.151 49.5208C140.256 50.0626 140.464 50.5796 140.762 51.044Z" fill="#455A64"/>
<path d="M141.204 32.5192C141.154 32.4237 141.126 32.3187 141.12 32.2112C141.097 31.9016 141.176 31.5929 141.344 31.332C141.605 30.9103 141.999 30.5873 142.464 30.4136C143.081 30.2171 143.74 30.1958 144.368 30.352C145.062 30.4864 145.785 30.7608 146.574 30.912C146.978 31.0248 147.402 31.0497 147.816 30.985C148.231 30.9202 148.627 30.7674 148.977 30.5368C149.682 29.9768 150.035 29.0696 150.394 28.1512C150.758 27.1651 151.276 26.2427 151.928 25.4184C153.197 23.8024 154.972 22.6587 156.968 22.1704C157.842 21.9641 158.755 21.9872 159.617 22.2376C160.364 22.4756 161.028 22.9203 161.532 23.52C161.958 24.0131 162.215 24.6291 162.266 25.2784C162.312 25.7633 162.237 26.252 162.047 26.7008C161.934 26.9841 161.765 27.2414 161.549 27.4568C161.48 27.5384 161.396 27.6068 161.303 27.6584C161.576 27.3691 161.792 27.031 161.941 26.6616C162.102 26.2254 162.158 25.7571 162.103 25.2952C162.041 24.6849 161.786 24.1102 161.375 23.6544C160.878 23.1029 160.235 22.7014 159.522 22.4952C158.696 22.2714 157.828 22.2579 156.996 22.456C155.075 22.9506 153.371 24.0646 152.147 25.6256C151.509 26.4161 151.001 27.3026 150.64 28.252C150.271 29.1704 149.906 30.1504 149.117 30.7496C148.736 31.0352 148.281 31.2061 147.807 31.2424C147.371 31.2756 146.934 31.2454 146.507 31.1528C145.69 30.9792 144.979 30.6936 144.307 30.5536C143.715 30.3897 143.089 30.3897 142.498 30.5536C142.062 30.7061 141.687 30.9947 141.428 31.3768C141.26 31.6162 141.17 31.9018 141.17 32.1944C141.182 32.4128 141.221 32.5136 141.204 32.5192Z" fill="#455A64"/>
<path d="M233.458 254.201C233.484 254.122 233.516 254.045 233.554 253.971C233.626 253.809 233.733 253.596 233.862 253.316C234.234 252.471 234.536 251.596 234.763 250.701C235.481 247.365 235.454 243.912 234.685 240.587C234.208 238.286 233.582 236.019 232.809 233.8C232.014 231.386 231.095 228.827 230.339 226.066C229.487 223.181 229.078 220.182 229.124 217.174C229.236 214.032 230.166 210.89 231.19 207.766C232.215 204.641 233.268 201.578 233.587 198.503C233.945 195.545 233.357 192.55 231.907 189.946C230.552 187.449 228.85 185.31 227.573 183.098C226.381 181.047 225.503 178.829 224.969 176.518C224.198 173.17 224.141 169.697 224.801 166.326C225.036 165.093 225.392 163.887 225.865 162.725C225.851 162.807 225.831 162.887 225.803 162.966C225.747 163.134 225.68 163.363 225.585 163.654C225.4 164.265 225.159 165.166 224.924 166.348C224.319 169.704 224.41 173.148 225.193 176.467C225.737 178.75 226.619 180.94 227.808 182.963C229.079 185.147 230.793 187.275 232.17 189.801C233.664 192.452 234.278 195.509 233.923 198.531C233.604 201.662 232.54 204.742 231.521 207.866C230.502 210.991 229.578 214.094 229.46 217.185C229.417 220.162 229.819 223.129 230.653 225.988C231.392 228.738 232.333 231.297 233.089 233.71C233.852 235.945 234.467 238.227 234.931 240.542C235.788 244.804 235.547 248.382 234.931 250.734C234.688 251.632 234.364 252.505 233.962 253.344C233.822 253.618 233.71 253.831 233.626 253.988C233.579 254.065 233.522 254.137 233.458 254.201Z" fill="#263238"/>
<path d="M229.286 185.282C229.286 185.282 226.694 176.994 231.342 172.144C231.378 172.104 231.424 172.076 231.476 172.061C231.528 172.047 231.582 172.047 231.634 172.063C231.685 172.078 231.731 172.107 231.767 172.147C231.802 172.187 231.826 172.237 231.834 172.29C232.081 173.656 232.4 177.822 229.286 185.282Z" fill="#C94621"/>
<path d="M230.838 174.905C230.83 175.419 230.772 175.931 230.664 176.434C230.491 177.486 230.289 178.724 230.071 180.09L229.511 183.742C229.469 184.253 229.377 184.76 229.236 185.254C229.194 184.74 229.211 184.223 229.287 183.714C229.371 182.767 229.539 181.474 229.774 180.034C230.009 178.595 230.255 177.318 230.457 176.394C230.527 175.885 230.655 175.385 230.838 174.905Z" fill="#263238"/>
<path d="M232.328 204.826C232.328 204.826 233.912 196.286 240.291 194.186C240.341 194.168 240.395 194.164 240.447 194.175C240.498 194.186 240.546 194.211 240.585 194.248C240.623 194.284 240.65 194.331 240.664 194.382C240.677 194.434 240.676 194.488 240.66 194.538C240.24 195.854 238.56 199.685 232.328 204.826Z" fill="#C94621"/>
<path d="M238.56 196.381C238.31 196.829 238.017 197.253 237.687 197.646L235.447 200.603L233.207 203.56C232.928 203.991 232.611 204.396 232.26 204.77C232.455 204.293 232.709 203.843 233.016 203.431C233.537 202.63 234.293 201.561 235.172 200.407C236.051 199.254 236.852 198.229 237.479 197.506C237.792 197.088 238.155 196.71 238.56 196.381Z" fill="#263238"/>
<path d="M230.603 226.24C230.603 226.24 229.639 217.616 235.127 213.741C235.17 213.708 235.221 213.688 235.274 213.683C235.327 213.678 235.381 213.688 235.429 213.712C235.477 213.736 235.517 213.773 235.545 213.819C235.573 213.864 235.587 213.917 235.587 213.97C235.57 215.359 235.077 219.52 230.603 226.24Z" fill="#C94621"/>
<path d="M234.108 216.345C234.001 216.848 233.845 217.339 233.643 217.812C233.279 218.814 232.843 219.99 232.367 221.29C231.891 222.589 231.465 223.765 231.101 224.767C230.963 225.261 230.775 225.739 230.541 226.195C230.596 225.683 230.711 225.18 230.883 224.694C231.146 223.782 231.56 222.533 232.064 221.178C232.568 219.822 233.055 218.602 233.431 217.728C233.606 217.244 233.833 216.78 234.108 216.345Z" fill="#263238"/>
<path d="M235.408 247.778C235.408 247.778 234.752 239.12 240.38 235.458C240.425 235.429 240.476 235.413 240.529 235.412C240.582 235.41 240.634 235.423 240.68 235.449C240.726 235.475 240.764 235.513 240.79 235.559C240.816 235.605 240.83 235.657 240.828 235.71C240.761 237.082 240.123 241.209 235.408 247.778Z" fill="#C94621"/>
<path d="M239.266 238C239.139 238.498 238.967 238.984 238.75 239.45C238.342 240.436 237.871 241.595 237.345 242.878C236.818 244.16 236.359 245.319 235.956 246.305C235.802 246.795 235.597 247.268 235.346 247.716C235.42 247.206 235.554 246.706 235.743 246.226C236.04 245.325 236.494 244.093 237.048 242.754C237.602 241.416 238.129 240.218 238.538 239.361C238.727 238.881 238.972 238.424 239.266 238Z" fill="#263238"/>
<path d="M225.563 178.002C225.563 178.002 217.863 173.981 217.723 167.266C217.722 167.213 217.736 167.161 217.762 167.115C217.789 167.069 217.828 167.031 217.875 167.006C217.922 166.98 217.974 166.968 218.028 166.971C218.081 166.973 218.132 166.99 218.176 167.02C219.307 167.81 222.477 170.531 225.563 178.002Z" fill="#C94621"/>
<path d="M219.313 169.574C219.671 169.943 219.992 170.346 220.271 170.778C220.898 171.64 221.631 172.654 222.438 173.779C223.244 174.905 223.989 175.907 224.616 176.77C224.946 177.163 225.24 177.584 225.495 178.03C225.098 177.701 224.742 177.325 224.437 176.91C223.827 176.182 223.02 175.146 222.197 173.964C221.374 172.782 220.618 171.724 220.103 170.906C219.79 170.493 219.525 170.046 219.313 169.574Z" fill="#263238"/>
<path d="M233.822 195.798C233.822 195.798 225.898 192.254 225.338 185.556C225.333 185.503 225.342 185.45 225.365 185.402C225.388 185.354 225.424 185.314 225.469 185.285C225.514 185.257 225.566 185.241 225.619 185.241C225.672 185.24 225.724 185.254 225.77 185.282C226.962 186.004 230.289 188.53 233.822 195.798Z" fill="#C94621"/>
<path d="M227.075 187.762C227.455 188.1 227.8 188.475 228.105 188.882L230.452 191.744L232.809 194.6C233.162 194.974 233.48 195.379 233.761 195.81C233.346 195.504 232.97 195.149 232.641 194.751C231.986 194.062 231.124 193.071 230.205 191.951C229.287 190.831 228.48 189.84 227.92 189.045C227.59 188.651 227.306 188.221 227.075 187.762Z" fill="#263238"/>
<path d="M229.264 215.645C229.264 215.645 223.821 208.88 226.375 202.664C226.394 202.614 226.427 202.571 226.469 202.54C226.512 202.508 226.563 202.488 226.615 202.484C226.668 202.479 226.722 202.489 226.769 202.513C226.817 202.537 226.856 202.574 226.884 202.619C227.618 203.801 229.427 207.564 229.264 215.645Z" fill="#C94621"/>
<path d="M226.912 205.419C227.096 205.901 227.229 206.4 227.31 206.909C227.539 207.95 227.803 209.149 228.099 210.526L228.894 214.138C229.037 214.631 229.137 215.135 229.191 215.645C228.961 215.184 228.786 214.697 228.671 214.194C228.402 213.282 228.111 212.01 227.78 210.594C227.45 209.177 227.22 207.889 227.086 206.948C226.971 206.446 226.913 205.934 226.912 205.419Z" fill="#263238"/>
<path d="M234.64 239.002C234.64 239.002 226.8 235.323 226.33 228.62C226.326 228.567 226.337 228.515 226.361 228.468C226.385 228.421 226.422 228.381 226.467 228.354C226.513 228.327 226.565 228.313 226.617 228.313C226.67 228.314 226.722 228.329 226.767 228.357C227.96 229.096 231.241 231.678 234.64 239.002Z" fill="#C94621"/>
<path d="M228.038 230.854C228.414 231.208 228.753 231.598 229.051 232.019L231.353 234.92L233.654 237.81C234.003 238.189 234.316 238.599 234.59 239.036C234.174 238.724 233.798 238.363 233.47 237.961C232.831 237.261 231.98 236.281 231.084 235.122C230.188 233.962 229.404 232.932 228.844 232.154C228.528 231.752 228.258 231.316 228.038 230.854Z" fill="#263238"/>
<path d="M250.32 204.87C250.326 204.934 250.326 204.997 250.32 205.061C250.32 205.212 250.32 205.397 250.32 205.621C250.32 206.142 250.264 206.847 250.225 207.726L249.816 215.242C249.256 218.383 247.655 221.861 245.51 225.243C243.931 227.735 242.279 229.998 240.856 232.103C239.558 233.941 238.392 235.868 237.367 237.871C236.692 239.229 236.145 240.646 235.732 242.105C235.592 242.62 235.491 243.029 235.43 243.303C235.406 243.447 235.369 243.587 235.318 243.723C235.319 243.578 235.336 243.434 235.368 243.292C235.407 243.006 235.491 242.598 235.609 242.071C235.976 240.588 236.496 239.146 237.16 237.77C238.164 235.743 239.315 233.793 240.604 231.935C242.021 229.813 243.667 227.55 245.235 225.07C247.369 221.71 248.959 218.277 249.542 215.186C249.76 212.106 249.939 209.524 250.068 207.676C250.141 206.802 250.197 206.097 250.242 205.576C250.242 205.358 250.281 205.173 250.298 205.016C250.315 204.859 250.32 204.87 250.32 204.87Z" fill="#263238"/>
<path d="M245.633 224.616C245.633 224.616 248.965 216.597 244.776 211.344C244.744 211.301 244.701 211.268 244.651 211.249C244.601 211.23 244.547 211.225 244.494 211.234C244.442 211.244 244.393 211.269 244.354 211.305C244.315 211.341 244.286 211.388 244.272 211.439C243.902 212.8 243.214 216.905 245.633 224.616Z" fill="#C94621"/>
<path d="M245.028 214.138C245.172 214.633 245.26 215.142 245.291 215.656C245.409 216.597 245.543 217.896 245.644 219.346C245.745 220.797 245.801 222.107 245.801 223.054C245.828 223.569 245.796 224.086 245.706 224.594C245.613 224.089 245.568 223.578 245.571 223.065C245.498 222.001 245.414 220.752 245.319 219.369C245.224 217.986 245.14 216.742 245.062 215.678C245 215.167 244.988 214.652 245.028 214.138Z" fill="#263238"/>
<g opacity="0.3">
<path d="M245.633 224.616C245.633 224.616 248.965 216.597 244.776 211.344C244.744 211.301 244.701 211.268 244.651 211.249C244.601 211.23 244.547 211.225 244.494 211.234C244.442 211.244 244.393 211.269 244.354 211.305C244.315 211.341 244.286 211.388 244.272 211.439C243.902 212.8 243.214 216.905 245.633 224.616Z" fill="black"/>
</g>
<path d="M235.318 243.936C235.318 243.936 237.989 235.67 233.386 230.776C233.35 230.736 233.304 230.708 233.253 230.693C233.202 230.678 233.147 230.678 233.096 230.693C233.045 230.707 232.998 230.736 232.963 230.775C232.927 230.815 232.903 230.864 232.893 230.916C232.63 232.282 232.283 236.443 235.318 243.936Z" fill="#C94621"/>
<path d="M233.867 233.52C234.047 234.002 234.176 234.501 234.254 235.01C234.444 235.939 234.685 237.25 234.903 238.661C235.122 240.072 235.278 241.399 235.357 242.346C235.43 242.856 235.439 243.373 235.385 243.886C235.255 243.388 235.169 242.88 235.127 242.368C234.97 241.315 234.786 240.078 234.567 238.711C234.349 237.345 234.17 236.107 234.007 235.049C233.908 234.545 233.861 234.033 233.867 233.52Z" fill="#263238"/>
<g opacity="0.3">
<path d="M235.318 243.936C235.318 243.936 237.989 235.67 233.386 230.776C233.35 230.736 233.304 230.708 233.253 230.693C233.202 230.678 233.147 230.678 233.096 230.693C233.045 230.707 232.998 230.736 232.963 230.775C232.927 230.815 232.903 230.864 232.893 230.916C232.63 232.282 232.283 236.443 235.318 243.936Z" fill="black"/>
</g>
<path d="M249.878 214.816C249.878 214.816 256.99 209.838 256.273 203.157C256.268 203.104 256.249 203.054 256.217 203.011C256.185 202.969 256.142 202.937 256.092 202.917C256.043 202.898 255.989 202.893 255.937 202.903C255.885 202.913 255.836 202.936 255.797 202.972C254.761 203.902 252 207.01 249.878 214.816Z" fill="#C94621"/>
<g opacity="0.3">
<path d="M249.878 214.816C249.878 214.816 256.99 209.838 256.273 203.157C256.268 203.104 256.249 203.054 256.217 203.011C256.185 202.969 256.142 202.937 256.092 202.917C256.043 202.898 255.989 202.893 255.937 202.903C255.885 202.913 255.836 202.936 255.797 202.972C254.761 203.902 252 207.01 249.878 214.816Z" fill="black"/>
</g>
<path d="M254.985 205.654C254.84 206.147 254.64 206.622 254.391 207.071C253.988 207.934 253.4 209.104 252.711 210.381C252.022 211.658 251.362 212.789 250.852 213.59C250.601 214.041 250.297 214.46 249.945 214.838C250.137 214.362 250.373 213.905 250.65 213.472C251.166 212.537 251.77 211.439 252.426 210.224L254.19 206.97C254.408 206.505 254.675 206.064 254.985 205.654Z" fill="#263238"/>
<path d="M238.185 235.76C238.185 235.76 246.764 234.422 249.06 228.11C249.08 228.061 249.085 228.007 249.076 227.955C249.067 227.902 249.043 227.854 249.007 227.814C248.972 227.775 248.926 227.746 248.875 227.731C248.824 227.716 248.77 227.715 248.719 227.73C247.38 228.094 243.505 229.662 238.185 235.76Z" fill="#C94621"/>
<g opacity="0.3">
<path d="M238.185 235.76C238.185 235.76 246.764 234.422 249.06 228.11C249.08 228.061 249.085 228.007 249.076 227.955C249.067 227.902 249.043 227.854 249.007 227.814C248.972 227.775 248.926 227.746 248.875 227.731C248.824 227.716 248.77 227.715 248.719 227.73C247.38 228.094 243.505 229.662 238.185 235.76Z" fill="black"/>
</g>
<path d="M246.809 229.768C246.46 230.147 246.072 230.486 245.65 230.782C244.911 231.375 243.864 232.165 242.688 233.022C241.512 233.878 240.414 234.584 239.602 235.082C239.178 235.375 238.721 235.618 238.241 235.805C238.624 235.464 239.036 235.159 239.473 234.892L242.497 232.753L245.516 230.608C245.916 230.283 246.349 230.001 246.809 229.768Z" fill="#263238"/>
<path d="M230.003 251.53L227.5 268.369H243.096L241.074 251.53H230.003Z" fill="#455A64"/>
<path d="M241.696 256.749C239.604 256.911 237.505 256.965 235.407 256.911C233.31 256.965 231.211 256.911 229.119 256.749C231.211 256.587 233.31 256.532 235.407 256.586C237.505 256.532 239.604 256.587 241.696 256.749Z" fill="#263238"/>
<path d="M242.004 258.087C242.004 258.177 239.098 258.25 235.514 258.25C231.93 258.25 229.04 258.16 229.04 258.087C229.04 258.014 231.946 257.925 235.536 257.925C239.126 257.925 242.004 257.998 242.004 258.087Z" fill="#263238"/>
<path d="M44.2852 237.63C45.0736 237.764 45.8271 238.055 46.5006 238.486C47.1741 238.917 47.7538 239.479 48.2052 240.139C49.0973 241.472 49.672 242.991 49.8852 244.58C50.3948 247.626 49.5716 251.087 48.4404 253.966C45.3324 252.504 43.6748 248.886 42.9524 246.994C41.8324 244.009 41.5524 237.91 44.2628 237.63" fill="#C94621"/>
<path d="M53.0434 258.255C52.5753 257.492 52.3179 256.618 52.2972 255.723C52.2766 254.828 52.4935 253.943 52.9258 253.159C53.3697 252.382 53.9644 251.701 54.6751 251.157C55.3858 250.612 56.198 250.216 57.0642 249.99C57.45 249.842 57.8635 249.781 58.2755 249.81C58.6876 249.839 59.0884 249.957 59.4498 250.158C59.753 250.398 59.9861 250.716 60.125 251.077C60.2638 251.439 60.3033 251.831 60.2394 252.213C60.0995 252.976 59.7615 253.688 59.2594 254.279C57.641 256.374 55.6866 258.098 53.0434 258.255Z" fill="#C94621"/>
<path d="M52.2596 267.91C52.1947 267.703 52.1608 267.488 52.1588 267.271C52.114 266.857 52.0636 266.252 52.0188 265.507C51.8773 263.559 51.9978 261.6 52.3772 259.683C52.7752 257.746 53.6883 255.953 55.0204 254.492C55.4328 254.065 55.8954 253.688 56.398 253.372C56.5681 253.246 56.7571 253.148 56.958 253.081C56.3226 253.558 55.7288 254.088 55.1828 254.666C53.9377 256.13 53.0808 257.885 52.6908 259.767C52.3227 261.657 52.1724 263.583 52.2428 265.507C52.2967 266.307 52.3023 267.109 52.2596 267.91Z" fill="#263238"/>
<path d="M45.0073 242.256C45.1675 242.576 45.2987 242.91 45.3993 243.253C45.6289 243.902 45.9593 244.843 46.3345 246.014C47.0961 248.354 48.0985 251.614 49.1345 255.226C50.1705 258.838 50.9993 262.142 51.5649 264.538C51.8505 265.737 52.0689 266.706 52.2145 267.383C52.3046 267.729 52.3664 268.081 52.3993 268.436C52.2657 268.105 52.1589 267.765 52.0801 267.417C51.8897 266.689 51.6321 265.737 51.3297 264.617C50.6969 262.237 49.8177 258.95 48.8041 255.338C47.7905 251.726 46.8217 248.461 46.1161 246.103L45.2873 243.303C45.1651 242.963 45.0714 242.612 45.0073 242.256Z" fill="#263238"/>
<path d="M48.905 261.156C48.1298 259.435 46.9552 257.923 45.4787 256.746C44.0022 255.57 42.2664 254.763 40.4154 254.391C39.4746 254.212 38.3154 254.234 37.789 255.041C37.2626 255.847 37.7162 256.922 38.2818 257.695C39.4887 259.298 41.1438 260.507 43.0377 261.169C44.9317 261.83 46.9794 261.916 48.9218 261.414" fill="#C94621"/>
<path d="M41.4404 257.102C41.6478 257.086 41.8563 257.107 42.0564 257.163C42.2986 257.197 42.5382 257.247 42.7732 257.314C43.0871 257.387 43.3958 257.481 43.6972 257.594C44.4956 257.869 45.2632 258.225 45.9876 258.658C47.773 259.717 49.2845 261.181 50.4004 262.931C50.8456 263.64 51.2207 264.39 51.5204 265.171C51.639 265.472 51.7418 265.778 51.8284 266.09C51.9038 266.322 51.9618 266.56 52.002 266.801C52.0604 267.001 52.0887 267.208 52.086 267.417C52.0188 267.417 51.8508 266.56 51.2908 265.266C50.9638 264.511 50.5702 263.785 50.1148 263.099C49.5476 262.266 48.9006 261.489 48.1828 260.781C47.4523 260.086 46.6551 259.465 45.8028 258.927C45.1044 258.485 44.3656 258.11 43.5964 257.807C42.314 257.309 41.4404 257.163 41.4404 257.102Z" fill="#263238"/>
<path d="M203.168 53.4408C203.168 53.6088 204.383 53.7432 205.878 53.7432C207.374 53.7432 208.589 53.6088 208.589 53.4408C208.589 53.2728 207.379 53.144 205.878 53.144C204.378 53.144 203.168 53.2784 203.168 53.4408Z" fill="#C94621"/>
<path d="M200.29 46.0656C200.122 46.0656 199.987 47.2976 199.987 48.8152C199.987 50.3328 200.122 51.5704 200.29 51.5704C200.458 51.5704 200.587 50.3384 200.587 48.8152C200.587 47.292 200.48 46.0656 200.29 46.0656Z" fill="#C94621"/>
<path d="M197.221 53.2672C197.221 53.0992 196.006 52.9648 194.511 52.9648C193.015 52.9648 191.8 53.0992 191.8 53.2672C191.8 53.4352 193.01 53.564 194.511 53.564C196.011 53.564 197.221 53.4296 197.221 53.2672Z" fill="#C94621"/>
<path d="M200.1 60.6424C200.268 60.6424 200.402 59.4104 200.402 57.8928C200.402 56.3752 200.268 55.1376 200.1 55.1376C199.932 55.1376 199.803 56.3696 199.803 57.8928C199.803 59.416 199.92 60.6424 200.1 60.6424Z" fill="#C94621"/>
<path d="M195.72 57.4784C195.843 57.5848 196.381 57.1536 196.913 56.5152C197.445 55.8768 197.775 55.2776 197.647 55.1712C197.518 55.0648 196.986 55.496 196.454 56.1288C195.922 56.7616 195.591 57.372 195.72 57.4784Z" fill="#C94621"/>
<path d="M196 49.112C195.883 49.2296 196.235 49.7784 196.79 50.3328C197.344 50.8872 197.882 51.2512 197.999 51.1336C198.117 51.016 197.764 50.4672 197.215 49.9128C196.667 49.3584 196.09 48.9944 196 49.112Z" fill="#C94621"/>
<path d="M202.188 51.2456C202.294 51.3688 202.804 51.1168 203.308 50.6856C203.812 50.2544 204.176 49.7896 204.07 49.6664C203.963 49.5432 203.454 49.7896 202.95 50.2264C202.446 50.6632 202.082 51.1168 202.188 51.2456Z" fill="#C94621"/>
<path d="M202.429 54.9304C202.312 55.0424 202.614 55.58 203.118 56.1288C203.622 56.6776 204.126 57.036 204.238 56.924C204.35 56.812 204.053 56.2744 203.549 55.7256C203.045 55.1768 202.552 54.8184 202.429 54.9304Z" fill="#C94621"/>
<path d="M69.1548 118.115C69.6492 118.285 70.1749 118.344 70.6948 118.289C71.2146 118.344 71.7403 118.285 72.2348 118.115C71.7395 117.949 71.2142 117.892 70.6948 117.947C70.1753 117.892 69.65 117.949 69.1548 118.115Z" fill="#C94621"/>
<path d="M67.5191 113.926C67.2951 114.956 67.2951 116.022 67.5191 117.051C67.7506 116.022 67.7506 114.955 67.5191 113.926Z" fill="#C94621"/>
<path d="M65.7778 118.014C65.2825 117.848 64.7572 117.791 64.2378 117.846C63.7183 117.791 63.193 117.848 62.6978 118.014C63.1922 118.184 63.7179 118.244 64.2378 118.188C64.7576 118.244 65.2833 118.184 65.7778 118.014Z" fill="#C94621"/>
<path d="M67.4132 122.203C67.6446 121.174 67.6446 120.107 67.4132 119.078C67.1891 120.108 67.1891 121.174 67.4132 122.203Z" fill="#C94621"/>
<path d="M64.9265 120.4C64.9993 120.462 65.3017 120.215 65.6041 119.84C65.9065 119.465 66.0913 119.134 66.0185 119.073C65.9457 119.011 65.6433 119.258 65.3409 119.633C65.0385 120.008 64.8537 120.35 64.9265 120.4Z" fill="#C94621"/>
<path d="M65.0665 115.657C65.0049 115.724 65.2009 116.032 65.5145 116.351C65.8281 116.67 66.1361 116.872 66.2033 116.805C66.2705 116.738 66.0745 116.43 65.7609 116.11C65.4473 115.791 65.1337 115.59 65.0665 115.657Z" fill="#C94621"/>
<path d="M68.6002 116.866C68.6562 116.939 68.9474 116.799 69.2498 116.547C69.5522 116.295 69.7426 116.038 69.681 115.987C69.6194 115.937 69.3282 116.06 69.0314 116.306C68.7346 116.553 68.5386 116.794 68.6002 116.866Z" fill="#C94621"/>
<path d="M68.7347 118.961C68.6675 119.022 68.8411 119.33 69.1267 119.644C69.4123 119.958 69.6867 120.159 69.7707 120.092C69.8547 120.025 69.6643 119.722 69.3787 119.414C69.0931 119.106 68.8075 118.899 68.7347 118.961Z" fill="#C94621"/>
<path d="M205.962 151.312C206.977 151.536 208.028 151.536 209.042 151.312C208.029 151.08 206.976 151.08 205.962 151.312Z" fill="#C94621"/>
<path d="M204.327 147.123C204.103 148.153 204.103 149.218 204.327 150.248C204.559 149.219 204.559 148.152 204.327 147.123Z" fill="#C94621"/>
<path d="M202.586 151.2C201.572 150.968 200.519 150.968 199.506 151.2C200.52 151.424 201.571 151.424 202.586 151.2Z" fill="#C94621"/>
<path d="M204.221 155.4C204.452 154.371 204.452 153.304 204.221 152.275C203.997 153.305 203.997 154.37 204.221 155.4Z" fill="#C94621"/>
<path d="M201.735 153.602C201.807 153.664 202.11 153.418 202.412 153.042C202.715 152.667 202.899 152.342 202.827 152.281C202.754 152.219 202.451 152.466 202.149 152.841C201.847 153.216 201.662 153.541 201.735 153.602Z" fill="#C94621"/>
<path d="M201.88 148.854C201.813 148.921 202.009 149.229 202.323 149.548C202.636 149.867 202.95 150.063 203.012 150.002C203.073 149.94 202.883 149.621 202.569 149.307C202.256 148.994 201.942 148.786 201.88 148.854Z" fill="#C94621"/>
<path d="M205.408 150.08C205.464 150.153 205.756 150.007 206.058 149.761C206.36 149.514 206.551 149.251 206.489 149.201C206.428 149.15 206.136 149.274 205.84 149.52C205.543 149.766 205.347 149.99 205.408 150.08Z" fill="#C94621"/>
<path d="M205.52 152.158C205.453 152.219 205.627 152.522 205.912 152.835C206.198 153.149 206.472 153.35 206.556 153.289C206.64 153.227 206.45 152.919 206.164 152.606C205.879 152.292 205.615 152.09 205.52 152.158Z" fill="#C94621"/>
<path d="M92.708 238.028C93.7206 238.252 94.7698 238.252 95.7824 238.028C94.7698 237.804 93.7206 237.804 92.708 238.028Z" fill="#C94621"/>
<path d="M91.073 233.839C90.8415 234.868 90.8415 235.935 91.073 236.964C91.2971 235.934 91.2971 234.869 91.073 233.839Z" fill="#C94621"/>
<path d="M89.3315 237.927C88.317 237.703 87.2659 237.703 86.2515 237.927C87.2651 238.159 88.3179 238.159 89.3315 237.927Z" fill="#C94621"/>
<path d="M90.9666 242.116C91.1906 241.086 91.1906 240.021 90.9666 238.991C90.7351 240.02 90.7351 241.087 90.9666 242.116Z" fill="#C94621"/>
<path d="M88.4802 240.318C88.553 240.38 88.8554 240.134 89.1578 239.758C89.4602 239.383 89.6506 239.053 89.5778 238.991C89.505 238.93 89.2026 239.176 88.9002 239.551C88.5978 239.926 88.4018 240.24 88.4802 240.318Z" fill="#C94621"/>
<path d="M88.6203 235.57C88.5531 235.637 88.7547 235.945 89.0683 236.264C89.3819 236.583 89.6899 236.785 89.7571 236.718C89.8243 236.65 89.6227 236.342 89.3091 236.023C88.9955 235.704 88.6875 235.502 88.6203 235.57Z" fill="#C94621"/>
<path d="M92.1483 236.779C92.2099 236.852 92.5011 236.712 92.7979 236.46C93.0947 236.208 93.2907 235.95 93.2291 235.9C93.1675 235.85 92.8819 235.973 92.5795 236.219C92.2771 236.466 92.0867 236.706 92.1483 236.779Z" fill="#C94621"/>
<path d="M92.2882 238.874C92.2154 238.935 92.3946 239.243 92.6746 239.557C92.9546 239.87 93.2346 240.066 93.3186 240.005C93.4026 239.943 93.2122 239.635 92.9266 239.327C92.641 239.019 92.3554 238.812 92.2882 238.874Z" fill="#C94621"/>
<path d="M90.4684 95.4184L90.2892 95.844C90.1362 96.2101 89.9126 96.5425 89.631 96.8222C89.3495 97.1018 89.0156 97.3232 88.6484 97.4736L88.1836 97.6584L88.626 97.8376C89.0056 97.9886 89.3504 98.2154 89.6393 98.5043C89.9282 98.7932 90.155 99.138 90.306 99.5176L90.4348 99.8256L90.6196 99.4392C90.9598 98.732 91.5626 98.1856 92.2996 97.916L92.6972 97.7704L92.1764 97.5128C91.5154 97.1935 90.9936 96.6439 90.7092 95.9672L90.4684 95.4184Z" fill="#C94621"/>
<path d="M70.7112 88.0096L70.6216 88.2224C70.5462 88.4059 70.4351 88.5727 70.2947 88.7131C70.1544 88.8534 69.9876 88.9645 69.804 89.04L69.5688 89.1296L69.7928 89.2192C69.9797 89.2959 70.1493 89.4092 70.2917 89.5525C70.434 89.6958 70.5462 89.8662 70.6216 90.0536L70.6832 90.2048L70.7784 90.0144C70.9476 89.6601 71.2493 89.3865 71.6184 89.2528L71.82 89.18L71.5568 89.0512C71.2269 88.8907 70.9663 88.6162 70.8232 88.2784L70.7112 88.0096Z" fill="#C94621"/>
<path d="M223.928 57.5848L223.838 57.7976C223.761 57.9807 223.649 58.1467 223.508 58.2861C223.366 58.4254 223.199 58.5354 223.015 58.6096L222.785 58.7048L223.004 58.7944C223.191 58.8693 223.36 58.9814 223.503 59.1239C223.645 59.2663 223.757 59.4362 223.832 59.6232L223.9 59.78L223.989 59.584C224.16 59.2311 224.461 58.9582 224.829 58.8224L225.031 58.7496L224.768 58.6264C224.437 58.4637 224.177 58.1873 224.034 57.848L223.928 57.5848Z" fill="#C94621"/>
<path d="M215.5 171.595L215.416 171.808C215.259 172.177 214.963 172.469 214.592 172.62L214.363 172.715L214.581 172.805C214.768 172.88 214.938 172.992 215.081 173.134C215.223 173.277 215.335 173.447 215.41 173.634L215.472 173.79L215.567 173.594C215.736 173.24 216.038 172.967 216.407 172.833L216.608 172.76L216.345 172.631C216.013 172.474 215.752 172.198 215.612 171.858L215.5 171.595Z" fill="#C94621"/>
<path d="M97.4402 221.536L97.3506 221.749C97.274 221.933 97.1619 222.099 97.0206 222.24C96.8793 222.38 96.7117 222.491 96.5274 222.566L96.2979 222.662L96.5163 222.751C96.7038 222.825 96.8741 222.937 97.0167 223.08C97.1592 223.222 97.271 223.392 97.345 223.58L97.4066 223.737L97.5018 223.541C97.671 223.186 97.9727 222.913 98.3418 222.779L98.5434 222.706L98.2802 222.578C97.9491 222.419 97.688 222.144 97.5466 221.805L97.4402 221.536Z" fill="#C94621"/>
<path d="M186.166 35.4928L186.077 35.7056C186.002 35.8896 185.89 36.0565 185.749 36.1961C185.607 36.3357 185.439 36.4451 185.254 36.5176L185.024 36.6128L185.248 36.7024C185.433 36.7771 185.602 36.8879 185.744 37.0282C185.886 37.1686 185.999 37.3357 186.077 37.52L186.138 37.6712L186.234 37.4808C186.4 37.1269 186.7 36.8531 187.068 36.7192L187.27 36.6408L187.006 36.5176C186.676 36.3564 186.417 36.0793 186.278 35.7392L186.166 35.4928Z" fill="#C94621"/>
<path d="M199.545 184.492L199.366 184.918C199.213 185.284 198.989 185.616 198.708 185.896C198.426 186.175 198.092 186.397 197.725 186.547L197.26 186.732L197.703 186.911C198.082 187.062 198.427 187.289 198.716 187.578C199.005 187.867 199.232 188.212 199.383 188.591L199.511 188.899L199.696 188.513C200.035 187.805 200.638 187.258 201.376 186.99L201.779 186.844L201.253 186.586C200.592 186.265 200.07 185.713 199.786 185.035L199.545 184.492Z" fill="#C94621"/>
</svg>
