<svg width="20" height="20" viewBox="0 0 20 20" fill="none" xmlns="http://www.w3.org/2000/svg">
<path d="M8.33301 11.1111C8.33301 10.8528 8.33301 10.7236 8.3614 10.6177C8.43846 10.3301 8.66308 10.1055 8.95066 10.0284C9.05663 10 9.18579 10 9.44412 10H10.5552C10.8136 10 10.9427 10 11.0487 10.0284C11.3363 10.1055 11.5609 10.3301 11.6379 10.6177C11.6663 10.7236 11.6663 10.8528 11.6663 11.1111V11.6667C11.6663 12.5871 10.9201 13.3333 9.99967 13.3333C9.0792 13.3333 8.33301 12.5871 8.33301 11.6667V11.1111Z" stroke="#C94621" stroke-width="1.5" stroke-linecap="round" stroke-linejoin="round"/>
<path d="M11.583 11.25H12.5685C13.6387 11.25 14.1738 11.25 14.6294 11.1535C15.948 10.8742 17.0238 10.0172 17.4946 8.87127C17.6572 8.47536 17.7236 7.99626 17.8564 7.03808C17.9062 6.67838 17.9311 6.49853 17.9071 6.35141C17.8374 5.92295 17.494 5.57198 17.0315 5.45637C16.8726 5.41667 16.6717 5.41667 16.27 5.41667H3.72936C3.3276 5.41667 3.12672 5.41667 2.9679 5.45637C2.50536 5.57198 2.16198 5.92295 2.09221 6.35141C2.06825 6.49853 2.09316 6.67838 2.14299 7.03808C2.27574 7.99626 2.34211 8.47536 2.50475 8.87127C2.97551 10.0172 4.05132 10.8742 5.36997 11.1535C5.82555 11.25 6.36066 11.25 7.43087 11.25H8.41634" stroke="#C94621" stroke-width="1.5"/>
<path d="M2.91699 9.58333V11.25C2.91699 14.3927 2.91699 15.964 3.83906 16.9404C4.76113 17.9167 6.24519 17.9167 9.21329 17.9167H10.7874C13.7555 17.9167 15.2395 17.9167 16.1616 16.9404C17.0837 15.964 17.0837 14.3927 17.0837 11.25V9.58333" stroke="#C94621" stroke-width="1.5" stroke-linecap="round" stroke-linejoin="round"/>
<path d="M12.9163 5.41667L12.852 5.12232C12.5311 3.65561 12.3707 2.92226 11.9888 2.50279C11.6069 2.08333 11.0996 2.08333 10.085 2.08333H9.91439C8.8998 2.08333 8.3925 2.08333 8.01058 2.50279C7.62866 2.92226 7.46824 3.65561 7.1474 5.12232L7.08301 5.41667" stroke="#C94621" stroke-width="1.5"/>
</svg>
