<svg width="32" height="32" viewBox="0 0 32 32" fill="none" xmlns="http://www.w3.org/2000/svg">
<rect width="32" height="32" rx="6" fill="#111111" fill-opacity="0.04"/>
<path d="M23.3117 21C23.9361 21 24.4328 20.6071 24.8787 20.0576C25.7916 18.9329 24.2928 18.034 23.7211 17.5938C23.14 17.1463 22.4912 16.8928 21.8333 16.8333M21 15.1667C22.1506 15.1667 23.0833 14.2339 23.0833 13.0833C23.0833 11.9327 22.1506 11 21 11" stroke="#C94621" stroke-width="1.5" stroke-linecap="round"/>
<path d="M8.68797 21C8.06355 21 7.5669 20.6071 7.12096 20.0576C6.20808 18.9329 7.7069 18.034 8.27855 17.5938C8.85965 17.1463 9.50849 16.8928 10.1663 16.8333M10.583 15.1667C9.43241 15.1667 8.49967 14.2339 8.49967 13.0833C8.49967 11.9327 9.43241 11 10.583 11" stroke="#C94621" stroke-width="1.5" stroke-linecap="round"/>
<path d="M12.7362 18.5927C11.8847 19.1192 9.65216 20.1942 11.0119 21.5395C11.6762 22.1967 12.4159 22.6667 13.346 22.6667H18.6533C19.5834 22.6667 20.3232 22.1967 20.9874 21.5395C22.3472 20.1942 20.1147 19.1192 19.2632 18.5927C17.2665 17.358 14.7329 17.358 12.7362 18.5927Z" stroke="#C94621" stroke-width="1.5" stroke-linecap="round" stroke-linejoin="round"/>
<path d="M18.9163 12.25C18.9163 13.8608 17.6105 15.1667 15.9997 15.1667C14.3888 15.1667 13.083 13.8608 13.083 12.25C13.083 10.6392 14.3888 9.33333 15.9997 9.33333C17.6105 9.33333 18.9163 10.6392 18.9163 12.25Z" stroke="#C94621" stroke-width="1.5"/>
</svg>
