<svg width="20" height="20" viewBox="0 0 20 20" fill="none" xmlns="http://www.w3.org/2000/svg">
<g clip-path="url(#clip0_59_460)">
<path d="M3.14835 9.95196C2.35832 8.57442 1.97687 7.44956 1.74686 6.30934C1.40668 4.62298 2.18517 2.97567 3.47481 1.92456C4.01987 1.48032 4.64468 1.6321 4.96699 2.21033L5.69465 3.51575C6.2714 4.55047 6.55978 5.06783 6.50258 5.61632C6.44538 6.16482 6.05647 6.61155 5.27864 7.505L3.14835 9.95196ZM3.14835 9.95196C4.74741 12.7402 7.25686 15.251 10.0484 16.852M10.0484 16.852C11.4259 17.642 12.5508 18.0235 13.691 18.2535C15.3773 18.5936 17.0247 17.8152 18.0758 16.5255C18.52 15.9805 18.3682 15.3556 17.79 15.0333L16.4846 14.3057C15.4499 13.7289 14.9325 13.4405 14.384 13.4977C13.8355 13.5549 13.3888 13.9439 12.4953 14.7217L10.0484 16.852Z" stroke="#C94621" stroke-width="1.5" stroke-linejoin="round"/>
</g>
<defs>
<clipPath id="clip0_59_460">
<rect width="20" height="20" fill="white"/>
</clipPath>
</defs>
</svg>
