<svg width="20" height="20" viewBox="0 0 20 20" fill="none" xmlns="http://www.w3.org/2000/svg">
<path d="M11.3831 4.5903C11.8799 4.05205 12.1283 3.78293 12.3923 3.62595C13.0291 3.24717 13.8134 3.23539 14.4609 3.59488C14.7292 3.74386 14.9853 4.00541 15.4973 4.5285C16.0094 5.0516 16.2654 5.31314 16.4113 5.58728C16.7632 6.24874 16.7517 7.04986 16.3809 7.70046C16.2272 7.9701 15.9637 8.22384 15.4369 8.73133L9.16773 14.7695C8.16923 15.7312 7.66998 16.2121 7.04602 16.4558C6.42206 16.6995 5.73612 16.6816 4.36423 16.6457L4.17757 16.6408C3.75992 16.6299 3.5511 16.6245 3.42971 16.4867C3.30832 16.3489 3.32489 16.1362 3.35804 15.7108L3.37604 15.4798C3.46932 14.2824 3.51597 13.6837 3.74979 13.1455C3.98361 12.6073 4.38694 12.1703 5.1936 11.2963L11.3831 4.5903Z" stroke="#C94621" stroke-width="1.5" stroke-linejoin="round"/>
<path d="M10.667 4.66667L15.3337 9.33334" stroke="#C94621" stroke-width="1.5" stroke-linejoin="round"/>
</svg>
