<svg width="24" height="24" viewBox="0 0 24 24" fill="none" xmlns="http://www.w3.org/2000/svg">
<path d="M13.6599 5.50836C14.2561 4.86247 14.5542 4.53952 14.8709 4.35114C15.6352 3.89661 16.5762 3.88247 17.3533 4.31386C17.6753 4.49264 17.9825 4.8065 18.597 5.43421C19.2115 6.06192 19.5187 6.37578 19.6937 6.70474C20.116 7.49849 20.1022 8.45983 19.6572 9.24056C19.4728 9.56413 19.1567 9.86862 18.5244 10.4776L11.0015 17.7234C9.80328 18.8775 9.20418 19.4545 8.45542 19.747C7.70667 20.0394 6.88354 20.0179 5.23727 19.9749L5.01328 19.969C4.5121 19.9559 4.26151 19.9493 4.11585 19.784C3.97018 19.6187 3.99007 19.3635 4.02984 18.8529L4.05144 18.5757C4.16338 17.1388 4.21936 16.4204 4.49994 15.7746C4.78053 15.1288 5.26452 14.6044 6.23252 13.5556L13.6599 5.50836Z" stroke="white" stroke-width="1.5" stroke-linejoin="round"/>
<path d="M12.8008 5.60001L18.4008 11.2" stroke="white" stroke-width="1.5" stroke-linejoin="round"/>
</svg>
