<svg width="32" height="32" viewBox="0 0 32 32" fill="none" xmlns="http://www.w3.org/2000/svg">
<rect width="32" height="32" rx="6" fill="#111111" fill-opacity="0.04"/>
<path d="M11.4813 18.9013C10.3023 19.6033 7.21114 21.0368 9.09388 22.8305C10.0136 23.7067 11.0379 24.3333 12.3257 24.3333H19.6743C20.9621 24.3333 21.9864 23.7067 22.9061 22.8305C24.7889 21.0368 21.6977 19.6033 20.5187 18.9013C17.754 17.2551 14.246 17.2551 11.4813 18.9013Z" stroke="#C94621" stroke-width="1.5" stroke-linecap="round" stroke-linejoin="round"/>
<path d="M19.75 11.4167C19.75 13.4877 18.0711 15.1667 16 15.1667C13.9289 15.1667 12.25 13.4877 12.25 11.4167C12.25 9.3456 13.9289 7.66667 16 7.66667C18.0711 7.66667 19.75 9.3456 19.75 11.4167Z" stroke="#C94621" stroke-width="1.5"/>
</svg>
