<svg width="44" height="44" viewBox="0 0 44 44" fill="none" xmlns="http://www.w3.org/2000/svg">
<rect width="44" height="44" rx="6" fill="#111111" fill-opacity="0.04"/>
<g clip-path="url(#clip0_8_233)">
<path d="M19.7055 20.4049H21.7795C21.9664 20.6186 22.1758 20.8115 22.4041 20.9802C21.244 20.9992 20.1577 21.4671 19.3385 22.3047C18.5254 23.1361 18.0404 24.2573 17.9729 25.4618L17.9344 26.1422H13.606L13.7179 24.1656C13.8397 22.0217 15.4474 20.4049 17.4576 20.4049H19.7055ZM24.725 20.9784C26.4611 20.9784 27.8735 19.566 27.8735 17.83C27.8735 16.0939 26.4611 14.68 24.725 14.68C22.989 14.68 21.575 16.093 21.575 17.83C21.575 19.5669 22.9881 20.9784 24.725 20.9784ZM10.5176 21.341C10.5797 21.341 10.6408 21.326 10.6958 21.2971C10.7507 21.2682 10.7978 21.2264 10.833 21.1753C10.8682 21.1242 10.8905 21.0652 10.8978 21.0036C10.9052 20.942 10.8974 20.8795 10.8752 20.8215C10.0451 18.6537 10.6297 15.5184 14.6804 13.1095L15.0227 13.7116C15.09 13.8291 15.2141 13.903 15.3498 13.9046C15.4848 13.9052 15.6117 13.8373 15.6823 13.7214L18.3226 9.40109C18.3573 9.34437 18.3766 9.27958 18.3786 9.21312C18.3806 9.14667 18.3652 9.08083 18.3341 9.02211C18.3028 8.96346 18.2568 8.91393 18.2006 8.87836C18.1444 8.8428 18.08 8.82242 18.0136 8.81922L12.7789 8.56984C12.6395 8.56219 12.5077 8.63273 12.4344 8.75141C12.3985 8.80986 12.3789 8.87688 12.3778 8.94547C12.3766 9.01406 12.3939 9.0817 12.4278 9.14133L12.8462 9.87852C10.7084 11.2058 9.38227 12.8623 8.90211 14.8064C8.40555 16.8156 8.8518 19.013 10.1927 21.1611C10.2272 21.2162 10.2751 21.2616 10.3319 21.293C10.3887 21.3245 10.4526 21.341 10.5176 21.341ZM30.7109 25.505C30.5907 23.3609 28.983 21.7442 26.9712 21.7442H22.4772C20.4655 21.7442 18.8578 23.3609 18.7376 25.5048L18.6256 27.4831H30.8229L30.7109 25.505ZM16.5555 16.4891C16.5555 18.226 17.9685 19.6391 19.7055 19.6391C20.1899 19.6395 20.6677 19.5275 21.1015 19.3118C20.9082 18.8417 20.8089 18.3383 20.8092 17.83C20.8092 16.5754 21.403 15.4576 22.3235 14.7405C21.7577 13.8971 20.7955 13.3407 19.7055 13.3407C17.9685 13.3407 16.5555 14.753 16.5555 16.4891ZM21.6662 33.3094C19.4978 34.1385 16.3626 33.5533 13.9541 29.5043L14.5563 29.1614C14.614 29.1283 14.6622 29.0808 14.6961 29.0234C14.7299 28.9661 14.7483 28.9009 14.7493 28.8344C14.7504 28.7678 14.734 28.7021 14.7019 28.6437C14.6698 28.5854 14.623 28.5365 14.5661 28.5019L10.2458 25.8621C10.1891 25.8274 10.1243 25.8081 10.0578 25.8061C9.99136 25.8041 9.92552 25.8194 9.8668 25.8506C9.80805 25.8816 9.75843 25.9275 9.72284 25.9836C9.68725 26.0397 9.66694 26.1041 9.66391 26.1705L9.41399 31.4041C9.41084 31.4725 9.42608 31.5405 9.4581 31.601C9.49013 31.6615 9.53778 31.7123 9.5961 31.7481C9.6544 31.7841 9.72131 31.8037 9.78981 31.805C9.85831 31.8062 9.92589 31.789 9.98547 31.7552L10.7227 31.3374C12.051 33.4762 13.7081 34.8024 15.6522 35.2826C16.1848 35.4138 16.7301 35.4794 17.2846 35.4794C18.8219 35.4794 20.427 34.9769 22.0058 33.9919C22.0865 33.9415 22.1455 33.8628 22.1714 33.7712C22.1973 33.6796 22.1881 33.5817 22.1458 33.4965C22.1034 33.4112 22.0308 33.3449 21.9421 33.3103C21.8534 33.2757 21.7551 33.2754 21.6662 33.3094ZM34.2377 22.8854C34.1874 22.8047 34.1087 22.7456 34.0171 22.7197C33.9254 22.6938 33.8275 22.703 33.7423 22.7454C33.5662 22.8335 33.4847 23.0408 33.5552 23.2251C34.3848 25.394 33.8002 28.5286 29.7501 30.9354L29.4072 30.335C29.3743 30.2771 29.3269 30.2289 29.2696 30.195C29.2124 30.1611 29.1472 30.1428 29.0807 30.1419H29.0747C28.9418 30.1419 28.8177 30.2108 28.7482 30.3251L26.1079 34.6454C26.0732 34.7022 26.0539 34.767 26.0519 34.8334C26.0499 34.8999 26.0652 34.9657 26.0964 35.0244C26.1277 35.0831 26.1737 35.1326 26.2299 35.1682C26.286 35.2037 26.3505 35.2241 26.4169 35.2273L31.6499 35.4772C31.6565 35.4772 31.6625 35.4778 31.6685 35.4778C31.7339 35.4776 31.7981 35.4607 31.8552 35.4287C31.9122 35.3968 31.9602 35.3508 31.9945 35.2951C32.0677 35.1765 32.0705 35.0272 32.0016 34.9058L31.5827 34.1669C33.7204 32.8397 35.0471 31.1832 35.5278 29.2396C36.0244 27.2309 35.5781 25.0336 34.2377 22.8854ZM22.7648 10.7371C24.9321 9.90695 28.0668 10.4905 30.4747 14.5412L29.8742 14.8835C29.8164 14.9165 29.7681 14.964 29.7342 15.0214C29.7004 15.0787 29.6821 15.1439 29.6812 15.2105C29.68 15.2771 29.6963 15.3429 29.7285 15.4012C29.7606 15.4595 29.8075 15.5084 29.8644 15.543L34.1847 18.1845C34.2459 18.2222 34.3148 18.2408 34.3843 18.2408C34.4455 18.2408 34.5073 18.226 34.5637 18.1965C34.6224 18.1653 34.672 18.1193 34.7076 18.0631C34.7431 18.0069 34.7635 17.9424 34.7666 17.876L35.0165 12.6413C35.0197 12.5729 35.0045 12.5049 34.9725 12.4443C34.9404 12.3837 34.8928 12.3329 34.8344 12.297C34.7761 12.2611 34.7092 12.2415 34.6407 12.2402C34.5722 12.2389 34.5046 12.256 34.445 12.2897L33.7062 12.7086C32.3784 10.5709 30.7219 9.24414 28.7777 8.76398C26.7685 8.26797 24.5717 8.71422 22.4247 10.0552C22.344 10.1056 22.285 10.1843 22.2591 10.2759C22.2332 10.3675 22.2423 10.4654 22.2847 10.5506C22.3272 10.6358 22.4 10.7021 22.4888 10.7366C22.5775 10.7711 22.676 10.7713 22.7648 10.7371Z" fill="#B16696"/>
</g>
<defs>
<clipPath id="clip0_8_233">
<rect width="28" height="28" fill="white" transform="translate(8 8)"/>
</clipPath>
</defs>
</svg>
