<svg width="44" height="44" viewBox="0 0 44 44" fill="none" xmlns="http://www.w3.org/2000/svg">
<rect width="44" height="44" rx="6" fill="#111111" fill-opacity="0.04"/>
<g clip-path="url(#clip0_8_238)">
<path d="M33.4824 21.341C33.4203 21.341 33.3592 21.326 33.3042 21.2971C33.2493 21.2682 33.2022 21.2264 33.167 21.1753C33.1318 21.1242 33.1095 21.0652 33.1022 21.0036C33.0948 20.942 33.1026 20.8795 33.1248 20.8215C33.9549 18.6537 33.3703 15.5184 29.3196 13.1095L28.9773 13.7116C28.91 13.8291 28.7859 13.903 28.6502 13.9046C28.5152 13.9052 28.3883 13.8373 28.3177 13.7214L25.6774 9.40109C25.6427 9.34437 25.6234 9.27958 25.6214 9.21312C25.6194 9.14667 25.6348 9.08083 25.6659 9.02211C25.6972 8.96346 25.7432 8.91393 25.7994 8.87836C25.8556 8.8428 25.92 8.82242 25.9864 8.81922L31.2211 8.56984C31.3605 8.56219 31.4923 8.63273 31.5656 8.75141C31.6015 8.80986 31.6211 8.87688 31.6222 8.94547C31.6234 9.01406 31.6061 9.0817 31.5722 9.14133L31.1538 9.87852C33.2916 11.2058 34.6177 12.8623 35.0979 14.8064C35.5944 16.8156 35.1482 19.013 33.8073 21.1611C33.7728 21.2162 33.7249 21.2616 33.6681 21.293C33.6113 21.3245 33.5474 21.341 33.4824 21.341ZM22.3338 33.3094C24.5022 34.1385 27.6374 33.5533 30.0459 29.5043L29.4437 29.1614C29.386 29.1283 29.3378 29.0808 29.3039 29.0234C29.2701 28.9661 29.2517 28.9009 29.2507 28.8344C29.2496 28.7678 29.266 28.7021 29.2981 28.6437C29.3302 28.5854 29.377 28.5365 29.4339 28.5019L33.7542 25.8621C33.8109 25.8274 33.8757 25.8081 33.9422 25.8061C34.0086 25.8041 34.0745 25.8194 34.1332 25.8506C34.1919 25.8816 34.2416 25.9275 34.2772 25.9836C34.3127 26.0397 34.3331 26.1041 34.3361 26.1705L34.586 31.4041C34.5892 31.4725 34.5739 31.5405 34.5419 31.601C34.5099 31.6615 34.4622 31.7123 34.4039 31.7481C34.3456 31.7841 34.2787 31.8037 34.2102 31.805C34.1417 31.8062 34.0741 31.789 34.0145 31.7552L33.2773 31.3374C31.949 33.4762 30.2919 34.8024 28.3478 35.2826C27.8152 35.4138 27.2699 35.4794 26.7154 35.4794C25.1781 35.4794 23.573 34.9769 21.9942 33.9919C21.9135 33.9415 21.8545 33.8628 21.8286 33.7712C21.8027 33.6796 21.8119 33.5817 21.8542 33.4965C21.8966 33.4112 21.9692 33.3449 22.0579 33.3103C22.1466 33.2757 22.2449 33.2754 22.3338 33.3094ZM9.76226 22.8854C9.81264 22.8047 9.89132 22.7456 9.98293 22.7197C10.0746 22.6938 10.1725 22.703 10.2577 22.7454C10.4338 22.8335 10.5153 23.0408 10.4448 23.2251C9.61515 25.394 10.1998 28.5286 14.2499 30.9354L14.5928 30.335C14.6257 30.2771 14.6731 30.2289 14.7304 30.195C14.7876 30.1611 14.8528 30.1428 14.9193 30.1419H14.9253C15.0582 30.1419 15.1823 30.2108 15.2518 30.3251L17.8921 34.6454C17.9268 34.7022 17.9461 34.767 17.9481 34.8334C17.9501 34.8999 17.9348 34.9657 17.9036 35.0244C17.8723 35.0831 17.8263 35.1326 17.7701 35.1682C17.714 35.2037 17.6495 35.2241 17.5831 35.2273L12.3501 35.4772C12.3435 35.4772 12.3375 35.4778 12.3315 35.4778C12.2661 35.4776 12.2019 35.4607 12.1448 35.4287C12.0878 35.3968 12.0398 35.3508 12.0055 35.2951C11.9323 35.1765 11.9295 35.0272 11.9984 34.9058L12.4173 34.1669C10.2796 32.8397 8.95289 31.1832 8.47219 29.2396C7.97562 27.2309 8.42187 25.0336 9.76226 22.8854ZM21.2352 10.7371C19.0679 9.90695 15.9332 10.4905 13.5253 14.5412L14.1258 14.8835C14.1836 14.9165 14.2319 14.964 14.2658 15.0214C14.2996 15.0787 14.3179 15.1439 14.3188 15.2105C14.32 15.2771 14.3037 15.3429 14.2715 15.4012C14.2394 15.4595 14.1925 15.5084 14.1356 15.543L9.81531 18.1845C9.75406 18.2222 9.68515 18.2408 9.6157 18.2408C9.55445 18.2408 9.49265 18.226 9.43633 18.1965C9.3776 18.1653 9.32801 18.1193 9.29243 18.0631C9.25686 18.0069 9.23653 17.9424 9.23343 17.876L8.98351 12.6413C8.98032 12.5729 8.99553 12.5049 9.02754 12.4443C9.05956 12.3837 9.10722 12.3329 9.16556 12.297C9.2239 12.2611 9.29079 12.2415 9.35928 12.2402C9.42777 12.2389 9.49535 12.256 9.555 12.2897L10.2938 12.7086C11.6216 10.5709 13.2781 9.24414 15.2223 8.76398C17.2315 8.26797 19.4283 8.71422 21.5753 10.0552C21.656 10.1056 21.715 10.1843 21.7409 10.2759C21.7668 10.3675 21.7577 10.4654 21.7153 10.5506C21.6728 10.6358 21.6 10.7021 21.5112 10.7366C21.4225 10.7711 21.324 10.7713 21.2352 10.7371Z" fill="#0289F7"/>
<path d="M19.7059 20.4049H21.7799C21.9669 20.6186 22.1763 20.8115 22.4046 20.9803C21.2444 20.9992 20.1581 21.4671 19.3389 22.3047C18.5259 23.1361 18.0409 24.2574 17.9734 25.4618L17.9349 26.1422H13.6064L13.7184 24.1657C13.8401 22.0217 15.4478 20.4049 17.4581 20.4049H19.7059ZM24.7255 20.9784C26.4615 20.9784 27.8739 19.5661 27.8739 17.83C27.8739 16.0939 26.4615 14.68 24.7255 14.68C22.9894 14.68 21.5755 16.0931 21.5755 17.83C21.5755 19.5669 22.9885 20.9784 24.7255 20.9784ZM30.7114 25.505C30.5911 23.3609 28.9834 21.7443 26.9717 21.7443H22.4776C20.4659 21.7443 18.8582 23.3609 18.738 25.5048L18.626 27.4831H30.8233L30.7114 25.505ZM16.5559 16.4891C16.5559 18.226 17.969 19.6391 19.7059 19.6391C20.1903 19.6395 20.6682 19.5275 21.1019 19.3119C20.9087 18.8418 20.8094 18.3383 20.8097 17.83C20.8097 16.5755 21.4034 15.4576 22.3239 14.7405C21.7582 13.8971 20.7959 13.3407 19.7059 13.3407C17.969 13.3407 16.5559 14.7531 16.5559 16.4891Z" fill="#0289F7"/>
</g>
<defs>
<clipPath id="clip0_8_238">
<rect width="28" height="28" fill="white" transform="matrix(-1 0 0 1 36 8)"/>
</clipPath>
</defs>
</svg>
