<svg width="44" height="44" viewBox="0 0 44 44" fill="none" xmlns="http://www.w3.org/2000/svg">
<rect width="44" height="44" rx="6" fill="#111111" fill-opacity="0.04"/>
<g clip-path="url(#clip0_8_274)">
<path d="M21.0221 14.8433C22.8106 14.8433 24.2974 13.5279 24.5665 11.8137C26.2455 12.297 27.9926 14.1585 28.7986 15.1095L34.3407 16.376C34.6399 16.4444 34.8998 16.6289 35.063 16.8889C35.2262 17.1488 35.2795 17.463 35.2111 17.7623C35.1427 18.0615 34.9583 18.3214 34.6983 18.4846C34.4383 18.6479 34.1242 18.7011 33.8249 18.6327L27.8997 17.2787C27.6467 17.2207 27.4204 17.0795 27.2572 16.8776C26.583 16.0443 25.6844 15.1528 24.9348 14.589V34.2115C24.9348 35.1996 24.1337 36.0001 23.1461 36.0001C22.1583 36.0001 21.357 35.1996 21.357 34.2113V21.1509H20.6866V34.2112C20.6866 35.1993 19.8855 36 18.8978 36C17.9099 36 17.1088 35.1995 17.1088 34.2112V19.7387L22.0574 18.598C22.8581 18.4135 23.3594 17.6119 23.1748 16.8112C23.1003 16.4823 22.9159 16.1885 22.652 15.9785C22.3881 15.7684 22.0605 15.6546 21.7232 15.6557C21.6111 15.6557 21.4984 15.6684 21.3883 15.6937L17.7716 16.5272C17.9313 15.9706 18.1246 15.4991 18.3286 15.1029L18.0024 15.0078C17.7365 15.537 17.4924 16.1852 17.314 16.9743L21.4627 16.018C21.7603 15.9531 22.0715 16.0082 22.3288 16.1712C22.5861 16.3343 22.7687 16.5922 22.8371 16.889C22.9056 17.1858 22.8542 17.4976 22.6943 17.7569C22.5343 18.0161 22.2786 18.2018 21.9826 18.2738L16.177 19.6118C15.9992 19.6528 15.8144 19.6512 15.6374 19.6071C15.4604 19.5631 15.2963 19.4779 15.1586 19.3584C15.0208 19.2389 14.9132 19.0885 14.8445 18.9195C14.7759 18.7506 14.7482 18.5678 14.7636 18.3861C14.8905 16.8923 15.2305 15.5291 15.7557 14.3539C16.2008 13.3573 16.7794 12.4962 17.4766 11.8075C17.743 13.5246 19.2314 14.8432 21.022 14.8432L21.0221 14.8433Z" fill="#6D21C9"/>
<path d="M21.0221 14.5106C19.2242 14.5106 17.7668 13.0531 17.7668 11.2553C17.7668 9.45744 19.2242 8 21.0221 8C22.8199 8 24.2773 9.45744 24.2773 11.2553C24.2773 13.0531 22.8199 14.5106 21.0221 14.5106Z" fill="#6D21C9"/>
</g>
<defs>
<clipPath id="clip0_8_274">
<rect width="22" height="28" fill="white" transform="matrix(-1 0 0 1 36 8)"/>
</clipPath>
</defs>
</svg>
