<svg width="44" height="44" viewBox="0 0 44 44" fill="none" xmlns="http://www.w3.org/2000/svg">
<rect width="44" height="44" rx="6" fill="#111111" fill-opacity="0.04"/>
<g clip-path="url(#clip0_8_141)">
<path d="M36 17.625V20.25C35.9979 20.9456 35.7207 21.612 35.2289 22.1039C34.737 22.5957 34.0706 22.8729 33.375 22.875H24.625C23.9294 22.8729 23.263 22.5957 22.7711 22.1039C22.2793 21.612 22.0021 20.9456 22 20.25V17.625H28.125C28.125 17.8571 28.2172 18.0796 28.3813 18.2437C28.5454 18.4078 28.7679 18.5 29 18.5C29.2321 18.5 29.4546 18.4078 29.6187 18.2437C29.7828 18.0796 29.875 17.8571 29.875 17.625H36ZM36 14.125V15.875H29.875C29.875 15.6429 29.7828 15.4204 29.6187 15.2563C29.4546 15.0922 29.2321 15 29 15C28.7679 15 28.5454 15.0922 28.3813 15.2563C28.2172 15.4204 28.125 15.6429 28.125 15.875H22V14.125C22.0021 13.4294 22.2793 12.763 22.7711 12.2711C23.263 11.7793 23.9294 11.5021 24.625 11.5H33.375C34.0706 11.5021 34.737 11.7793 35.2289 12.2711C35.7207 12.763 35.9979 13.4294 36 14.125Z" fill="#D4232A"/>
<path d="M31.625 13.25H26.375C26.1429 13.25 25.9204 13.1578 25.7563 12.9937C25.5922 12.8296 25.5 12.6071 25.5 12.375V10.625C25.5007 9.92902 25.7775 9.26174 26.2696 8.76961C26.7617 8.27748 27.429 8.00069 28.125 8H29.875C30.571 8.00069 31.2383 8.27748 31.7304 8.76961C32.2225 9.26174 32.4993 9.92902 32.5 10.625V12.375C32.5 12.6071 32.4078 12.8296 32.2437 12.9937C32.0796 13.1578 31.8571 13.25 31.625 13.25ZM27.25 11.5H30.75V10.625C30.7498 10.393 30.6575 10.1706 30.4935 10.0065C30.3294 9.84249 30.107 9.75023 29.875 9.75H28.125C27.893 9.75023 27.6706 9.84249 27.5065 10.0065C27.3425 10.1706 27.2502 10.393 27.25 10.625V11.5ZM22 27.25V29H15.875C15.875 28.7679 15.7828 28.5454 15.6187 28.3813C15.4546 28.2172 15.2321 28.125 15 28.125C14.7679 28.125 14.5454 28.2172 14.3813 28.3813C14.2172 28.5454 14.125 28.7679 14.125 29H8V27.25C8.00208 26.5544 8.27931 25.888 8.77114 25.3961C9.26297 24.9043 9.92945 24.6271 10.625 24.625H19.375C20.0706 24.6271 20.737 24.9043 21.2289 25.3961C21.7207 25.888 21.9979 26.5544 22 27.25ZM15.875 30.75H22V33.375C21.9979 34.0706 21.7207 34.737 21.2289 35.2289C20.737 35.7207 20.0706 35.9979 19.375 36H10.625C9.92945 35.9979 9.26297 35.7207 8.77114 35.2289C8.27931 34.737 8.00208 34.0706 8 33.375V30.75H14.125C14.125 30.9821 14.2172 31.2046 14.3813 31.3687C14.5454 31.5328 14.7679 31.625 15 31.625C15.2321 31.625 15.4546 31.5328 15.6187 31.3687C15.7828 31.2046 15.875 30.9821 15.875 30.75Z" fill="#D4232A"/>
<path d="M17.625 26.375H12.375C12.1429 26.375 11.9204 26.2828 11.7563 26.1187C11.5922 25.9546 11.5 25.7321 11.5 25.5V23.75C11.5007 23.054 11.7775 22.3867 12.2696 21.8946C12.7617 21.4025 13.429 21.1257 14.125 21.125H15.875C16.571 21.1257 17.2383 21.4025 17.7304 21.8946C18.2225 22.3867 18.4993 23.054 18.5 23.75V25.5C18.5 25.7321 18.4078 25.9546 18.2437 26.1187C18.0796 26.2828 17.8571 26.375 17.625 26.375ZM13.25 24.625H16.75V23.75C16.7498 23.518 16.6575 23.2956 16.4935 23.1315C16.3294 22.9675 16.107 22.8752 15.875 22.875H14.125C13.893 22.8752 13.6706 22.9675 13.5065 23.1315C13.3425 23.2956 13.2502 23.518 13.25 23.75V24.625ZM15 18.4843C14.7679 18.4843 14.5454 18.3921 14.3813 18.228C14.2172 18.0639 14.125 17.8413 14.125 17.6093V15C14.1257 14.304 14.4025 13.6367 14.8946 13.1446C15.3867 12.6525 16.054 12.3757 16.75 12.375H19.375C19.6071 12.375 19.8296 12.4672 19.9937 12.6313C20.1578 12.7954 20.25 13.0179 20.25 13.25C20.25 13.4821 20.1578 13.7046 19.9937 13.8687C19.8296 14.0328 19.6071 14.125 19.375 14.125H16.75C16.518 14.1252 16.2956 14.2175 16.1315 14.3815C15.9675 14.5456 15.8752 14.768 15.875 15V17.6093C15.875 17.8413 15.7828 18.0639 15.6187 18.228C15.4546 18.3921 15.2321 18.4843 15 18.4843Z" fill="#D4232A"/>
<path d="M15.0114 19.3864C14.8964 19.3865 14.7826 19.3639 14.6765 19.3199C14.5703 19.2759 14.4739 19.2114 14.3927 19.13L12.6314 17.3686C12.472 17.2036 12.3838 16.9826 12.3858 16.7531C12.3878 16.5237 12.4798 16.3043 12.642 16.142C12.8043 15.9798 13.0237 15.8878 13.2531 15.8858C13.4826 15.8838 13.7036 15.972 13.8686 16.1314L15.0114 17.2741L16.1585 16.1279C16.2392 16.0443 16.3358 15.9776 16.4425 15.9318C16.5493 15.8859 16.6641 15.8618 16.7803 15.8608C16.8964 15.8598 17.0117 15.8819 17.1192 15.9259C17.2267 15.9699 17.3244 16.0349 17.4066 16.117C17.4887 16.1992 17.5537 16.2969 17.5977 16.4044C17.6417 16.512 17.6638 16.6272 17.6628 16.7434C17.6618 16.8595 17.6377 16.9744 17.5918 17.0811C17.546 17.1879 17.4793 17.2844 17.3957 17.3651L15.63 19.13C15.5488 19.2114 15.4524 19.2759 15.3463 19.3199C15.2401 19.3639 15.1263 19.3865 15.0114 19.3864ZM27.25 31.625H24.625C24.3929 31.625 24.1704 31.5328 24.0063 31.3687C23.8422 31.2046 23.75 30.9821 23.75 30.75C23.75 30.5179 23.8422 30.2954 24.0063 30.1313C24.1704 29.9672 24.3929 29.875 24.625 29.875H27.25C27.482 29.8748 27.7044 29.7825 27.8685 29.6185C28.0325 29.4544 28.1248 29.232 28.125 29V26.3907C28.125 26.1587 28.2172 25.9361 28.3813 25.772C28.5454 25.6079 28.7679 25.5157 29 25.5157C29.2321 25.5157 29.4546 25.6079 29.6187 25.772C29.7828 25.9361 29.875 26.1587 29.875 26.3907V29C29.8743 29.696 29.5975 30.3633 29.1054 30.8554C28.6132 31.3475 27.946 31.6243 27.25 31.625Z" fill="#D4232A"/>
<path d="M27.2225 28.1285C27.0494 28.1284 26.8803 28.0771 26.7364 27.9809C26.5926 27.8848 26.4805 27.7481 26.4143 27.5883C26.348 27.4284 26.3307 27.2525 26.3645 27.0828C26.3982 26.9131 26.4815 26.7572 26.6038 26.6348L28.3696 24.87C28.5337 24.7059 28.7562 24.6138 28.9882 24.6138C29.2202 24.6138 29.4428 24.7059 29.6068 24.87L31.3682 26.6313C31.5276 26.7964 31.6158 27.0174 31.6138 27.2468C31.6118 27.4762 31.5198 27.6957 31.3576 27.8579C31.1953 28.0202 30.9759 28.1122 30.7464 28.1142C30.517 28.1162 30.296 28.028 30.131 27.8686L28.9882 26.7258L27.8411 27.8721C27.7599 27.9535 27.6635 28.018 27.5574 28.062C27.4512 28.106 27.3374 28.1286 27.2225 28.1285Z" fill="#D4232A"/>
</g>
<defs>
<clipPath id="clip0_8_141">
<rect width="28" height="28" fill="white" transform="translate(8 8)"/>
</clipPath>
</defs>
</svg>
