<svg width="18" height="19" viewBox="0 0 18 19" fill="none" xmlns="http://www.w3.org/2000/svg">
<path d="M7.83398 9.91666H12.0007M5.33398 9.91666H5.34147M9.50065 13.25H5.33398M12.0007 13.25H11.9932" stroke="#111111" stroke-width="1.5" stroke-linecap="round" stroke-linejoin="round"/>
<path d="M13.668 0.75V2.41667M3.66797 0.75V2.41667" stroke="#111111" stroke-width="1.5" stroke-linecap="round" stroke-linejoin="round"/>
<path d="M0.75 9.28602C0.75 5.65493 0.75 3.83938 1.79343 2.71135C2.83686 1.58331 4.51624 1.58331 7.875 1.58331H9.45833C12.8171 1.58331 14.4965 1.58331 15.5399 2.71135C16.5833 3.83938 16.5833 5.65493 16.5833 9.28602V9.71394C16.5833 13.345 16.5833 15.1606 15.5399 16.2886C14.4965 17.4166 12.8171 17.4166 9.45833 17.4166H7.875C4.51624 17.4166 2.83686 17.4166 1.79343 16.2886C0.75 15.1606 0.75 13.345 0.75 9.71394V9.28602Z" stroke="#111111" stroke-width="1.5" stroke-linecap="round" stroke-linejoin="round"/>
<path d="M1.16797 5.75H16.168" stroke="#111111" stroke-width="1.5" stroke-linecap="round" stroke-linejoin="round"/>
</svg>
