<svg width="32" height="32" viewBox="0 0 32 32" fill="none" xmlns="http://www.w3.org/2000/svg">
<rect width="32" height="32" rx="6" fill="#111111" fill-opacity="0.04"/>
<path d="M18.9163 16C18.9163 17.6108 17.6105 18.9167 15.9997 18.9167C14.3888 18.9167 13.083 17.6108 13.083 16C13.083 14.3892 14.3888 13.0833 15.9997 13.0833C17.6105 13.0833 18.9163 14.3892 18.9163 16Z" stroke="#C94621" stroke-width="1.5"/>
<path d="M23.3497 17.7949C23.879 17.6209 24.1437 17.5339 24.2387 17.4027C24.3337 17.2715 24.3337 17.0607 24.3337 16.639V15.361C24.3337 14.9394 24.3337 14.7286 24.2387 14.5973C24.1437 14.4661 23.879 14.3792 23.3497 14.2052C21.8721 13.7196 20.9475 12.1758 21.2485 10.6657C21.3597 10.1082 21.4153 9.82941 21.348 9.68235C21.2808 9.53529 21.0965 9.43068 20.7281 9.22147L19.5807 8.57004C19.218 8.36412 19.0367 8.26116 18.8764 8.27845C18.7161 8.29574 18.512 8.4789 18.1037 8.84522C16.9194 9.90775 15.0826 9.9077 13.8983 8.84514C13.49 8.47882 13.2859 8.29566 13.1256 8.27837C12.9653 8.26108 12.7839 8.36404 12.4213 8.56996L11.2739 9.22139C10.9055 9.43059 10.7212 9.53518 10.654 9.68222C10.5868 9.82926 10.6423 10.1081 10.7534 10.6656C11.0542 12.1758 10.1289 13.7197 8.65098 14.2052C8.12167 14.3791 7.85702 14.4661 7.762 14.5973C7.66699 14.7285 7.66699 14.9394 7.66699 15.361V16.639C7.66699 17.0607 7.66699 17.2715 7.76199 17.4027C7.85699 17.5339 8.12165 17.6209 8.65097 17.7949C10.1286 18.2804 11.0531 19.8243 10.7521 21.3344C10.641 21.8919 10.5854 22.1707 10.6526 22.3177C10.7199 22.4648 10.9041 22.5694 11.2726 22.7786L12.4199 23.43C12.7827 23.636 12.964 23.7389 13.1243 23.7216C13.2846 23.7043 13.4887 23.5212 13.8969 23.1548C15.0819 22.0913 16.9201 22.0913 18.105 23.1547C18.5132 23.5211 18.7173 23.7043 18.8777 23.7216C19.038 23.7389 19.2193 23.6359 19.582 23.4299L20.7294 22.7785C21.0979 22.5693 21.2821 22.4647 21.3494 22.3176C21.4166 22.1705 21.361 21.8918 21.2498 21.3343C20.9486 19.8243 21.8724 18.2805 23.3497 17.7949Z" stroke="#C94621" stroke-width="1.5" stroke-linecap="round"/>
</svg>
