<svg width="20" height="20" viewBox="0 0 20 20" fill="none" xmlns="http://www.w3.org/2000/svg">
<path d="M12.0752 12.9167H12.0827M7.91602 12.9167H7.92349" stroke="#C94621" stroke-width="2" stroke-linecap="round" stroke-linejoin="round"/>
<path d="M3.55521 15.704C3.74261 17.0958 4.89547 18.1863 6.29841 18.2508C7.47893 18.305 8.67812 18.3333 9.9987 18.3333C11.3193 18.3333 12.5185 18.305 13.699 18.2508C15.1019 18.1863 16.2548 17.0958 16.4422 15.704C16.5645 14.7956 16.6654 13.8647 16.6654 12.9167C16.6654 11.9686 16.5645 11.0378 16.4422 10.1294C16.2548 8.73752 15.1019 7.64707 13.699 7.58258C12.5185 7.52831 11.3193 7.5 9.9987 7.5C8.67812 7.5 7.47893 7.52831 6.29841 7.58258C4.89547 7.64707 3.74261 8.73752 3.55521 10.1294C3.4329 11.0378 3.33203 11.9686 3.33203 12.9167C3.33203 13.8647 3.4329 14.7956 3.55521 15.704Z" stroke="#C94621" stroke-width="1.5"/>
<path d="M6.25 7.49999V5.41666C6.25 3.34559 7.92893 1.66666 10 1.66666C12.0711 1.66666 13.75 3.34559 13.75 5.41666V7.49999" stroke="#C94621" stroke-width="1.5" stroke-linecap="round" stroke-linejoin="round"/>
</svg>
