<svg width="44" height="44" viewBox="0 0 44 44" fill="none" xmlns="http://www.w3.org/2000/svg">
<rect width="44" height="44" rx="6" fill="#111111" fill-opacity="0.04"/>
<g clip-path="url(#clip0_8_247)">
<path d="M22.9779 14.8433C21.1894 14.8433 19.7026 13.5279 19.4335 11.8137C17.7545 12.297 16.0074 14.1585 15.2014 15.1095L9.65933 16.376C9.36007 16.4444 9.10024 16.6289 8.937 16.8889C8.77375 17.1488 8.72047 17.463 8.78887 17.7623C8.85726 18.0615 9.04174 18.3214 9.30171 18.4846C9.56168 18.6479 9.87585 18.7011 10.1751 18.6327L16.1003 17.2787C16.3533 17.2207 16.5796 17.0795 16.7428 16.8776C17.417 16.0443 18.3156 15.1528 19.0652 14.589V34.2115C19.0652 35.1996 19.8663 36.0001 20.8539 36.0001C21.8417 36.0001 22.643 35.1996 22.643 34.2113V21.1509H23.3134V34.2112C23.3134 35.1993 24.1145 36 25.1022 36C26.0901 36 26.8912 35.1995 26.8912 34.2112V19.7387L21.9426 18.598C21.1419 18.4135 20.6406 17.6119 20.8252 16.8112C20.8997 16.4823 21.0841 16.1885 21.348 15.9785C21.6119 15.7684 21.9395 15.6546 22.2768 15.6557C22.3889 15.6557 22.5016 15.6684 22.6117 15.6937L26.2284 16.5272C26.0687 15.9706 25.8754 15.4991 25.6714 15.1029L25.9976 15.0078C26.2635 15.537 26.5076 16.1852 26.686 16.9743L22.5373 16.018C22.2397 15.9531 21.9285 16.0082 21.6712 16.1712C21.4139 16.3343 21.2313 16.5922 21.1629 16.889C21.0944 17.1858 21.1458 17.4976 21.3057 17.7569C21.4657 18.0161 21.7214 18.2018 22.0174 18.2738L27.823 19.6118C28.0008 19.6528 28.1856 19.6512 28.3626 19.6071C28.5396 19.5631 28.7037 19.4779 28.8414 19.3584C28.9792 19.2389 29.0868 19.0885 29.1555 18.9195C29.2241 18.7506 29.2518 18.5678 29.2364 18.3861C29.1095 16.8923 28.7695 15.5291 28.2443 14.3539C27.7992 13.3573 27.2206 12.4962 26.5234 11.8075C26.257 13.5246 24.7686 14.8432 22.978 14.8432L22.9779 14.8433Z" fill="#D1734A"/>
<path d="M22.9779 14.5106C24.7758 14.5106 26.2332 13.0531 26.2332 11.2553C26.2332 9.45744 24.7758 8 22.9779 8C21.1801 8 19.7227 9.45744 19.7227 11.2553C19.7227 13.0531 21.1801 14.5106 22.9779 14.5106Z" fill="#D1734A"/>
</g>
<defs>
<clipPath id="clip0_8_247">
<rect width="22" height="28" fill="white" transform="translate(8 8)"/>
</clipPath>
</defs>
</svg>
