<svg width="44" height="44" viewBox="0 0 44 44" fill="none" xmlns="http://www.w3.org/2000/svg">
<rect width="44" height="44" rx="6" fill="#111111" fill-opacity="0.04"/>
<g clip-path="url(#clip0_8_154)">
<path d="M29.5876 8.00963C29.474 7.99268 29.3581 7.9983 29.2465 8.02617C29.135 8.05403 29.0301 8.10359 28.9377 8.17201C28.8454 8.24044 28.7674 8.32639 28.7083 8.42495C28.6492 8.52352 28.61 8.63277 28.5931 8.74646C28.1002 12.0345 27.0259 13.7201 26.1525 14.6006C25.7135 15.0415 25.3183 15.2843 25.046 15.4171C24.9501 15.4646 24.851 15.5055 24.7494 15.5393H20.6566C20.5609 15.5395 20.4658 15.556 20.3756 15.5881C20.0916 15.6575 19.594 15.8376 19.0592 16.2967C18.3157 16.9304 17.5493 18.071 17.1367 19.9958L17.136 19.998V19.9976C17.0942 20.1948 17.0569 20.3929 17.0243 20.5919C16.8896 21.4022 16.8089 22.3367 16.8027 23.4233C16.8021 23.5383 16.8241 23.6523 16.8675 23.7587C16.9109 23.8652 16.9749 23.9621 17.0557 24.0438C17.1366 24.1256 17.2327 24.1906 17.3387 24.2352C17.4447 24.2797 17.5584 24.303 17.6734 24.3036H17.6779C18.1591 24.3036 18.5509 23.915 18.5535 23.4332C18.5588 22.4551 18.6295 21.6315 18.7412 20.9384C18.7735 20.7377 18.8088 20.5465 18.8476 20.3675L18.8478 20.3663C19.1033 19.1943 19.4717 18.4828 19.8112 18.0415V24.9851H20.2311C20.7136 24.9851 21.1064 25.3779 21.1064 25.8606V34.6141C21.1069 34.8034 21.0458 34.9877 20.9323 35.1392C20.8188 35.2907 20.6591 35.4011 20.4773 35.4538V35.5623C20.4773 35.6241 20.4681 35.6838 20.4521 35.7406C20.6656 35.8738 20.9121 35.9444 21.1638 35.9444C21.9109 35.9444 22.5167 35.339 22.5167 34.5917V24.7143H23.0239V34.5917C23.0239 35.339 23.6298 35.9444 24.3767 35.9444C25.1238 35.9444 25.7296 35.339 25.7296 34.5917V17.0295C26.171 16.8252 26.768 16.4648 27.3935 15.8356C28.5677 14.6588 29.7959 12.5729 30.3245 9.00425C30.3414 8.89056 30.3358 8.77464 30.308 8.66311C30.2801 8.55159 30.2306 8.44664 30.1621 8.35428C30.0937 8.26191 30.0078 8.18393 29.9092 8.1248C29.8106 8.06566 29.7013 8.02653 29.5876 8.00963Z" fill="#31A2BF"/>
<path d="M22.7705 14.9159C24.1302 14.9159 25.2325 13.8136 25.2325 12.4539C25.2325 11.0943 24.1302 9.99201 22.7705 9.99201C21.4108 9.99201 20.3086 11.0943 20.3086 12.4539C20.3086 13.8136 21.4108 14.9159 22.7705 14.9159Z" fill="#31A2BF"/>
<path d="M20.2585 35.2692C20.4277 35.2623 20.5876 35.1903 20.7049 35.0682C20.8221 34.9461 20.8876 34.7834 20.8877 34.6141V25.8605C20.8877 25.498 20.5936 25.204 20.2312 25.204H19.0823V23.654H19.3922V22.8515H18.7839C18.7772 23.042 18.773 23.2359 18.772 23.4342C18.7708 23.6574 18.7008 23.8749 18.5715 24.057V25.204H15.982V23.654H16.6076C16.5915 23.5777 16.5835 23.4999 16.5838 23.4219C16.5849 23.2286 16.5892 23.039 16.595 22.8515H15.1613V23.654H15.4714V25.204H14.3225C14.1484 25.204 13.9814 25.2732 13.8583 25.3963C13.7352 25.5194 13.666 25.6864 13.666 25.8605V34.6141C13.6661 34.7834 13.7316 34.9461 13.8488 35.0682C13.9661 35.1903 14.126 35.2623 14.2952 35.2692V35.5623C14.2952 35.6784 14.3413 35.7897 14.4234 35.8718C14.5055 35.9539 14.6168 36 14.7329 36C14.8489 36 14.9603 35.9539 15.0423 35.8718C15.1244 35.7897 15.1705 35.6784 15.1705 35.5623V35.2706H19.3832V35.5623C19.3832 35.6784 19.4293 35.7897 19.5114 35.8718C19.5935 35.9539 19.7048 36 19.8209 36C19.9369 36 20.0483 35.9539 20.1303 35.8718C20.2124 35.7897 20.2585 35.6784 20.2585 35.5623V35.2692Z" fill="#31A2BF"/>
</g>
<defs>
<clipPath id="clip0_8_154">
<rect width="28" height="28" fill="white" transform="translate(8 8)"/>
</clipPath>
</defs>
</svg>
